{
  "accessors": [
    {
      "bufferView": 2,
      "componentType": 5126,
      "count": 2125,
      "max": [
        15.1502103805542,
        -1.6891249418258667,
        17.548274993896484
      ],
      "min": [
        -15.1502103805542,
        -21.623653411865234,
        -24.1627140045166
      ],
      "type": "VEC3"
    },
    {
      "bufferView": 2,
      "byteOffset": 25500,
      "componentType": 5126,
      "count": 2125,
      "max": [
        0.999920129776001,
        0.9995055198669434,
        1.0
      ],
      "min": [
        -0.999920129776001,
        -0.9991266131401062,
        -1.0
      ],
      "type": "VEC3"
    },
    {
      "bufferView": 1,
      "componentType": 5126,
      "count": 2125,
      "max": [
        -0.006508000195026398,
        0.9936519861221313
      ],
      "min": [
        -0.9946290254592896,
        0.006347999908030033
      ],
      "type": "VEC2"
    },
    {
      "bufferView": 0,
      "componentType": 5125,
      "count": 9054,
      "type": "SCALAR"
    },
    {
      "bufferView": 2,
      "byteOffset": 51000,
      "componentType": 5126,
      "count": 374,
      "max": [
        3.0062930583953857,
        -14.626996040344238,
        22.76584243774414
      ],
      "min": [
        -3.0062930583953857,
        -16.153331756591797,
        19.65878677368164
      ],
      "type": "VEC3"
    },
    {
      "bufferView": 2,
      "byteOffset": 55488,
      "componentType": 5126,
      "count": 374,
      "max": [
        0.9158701300621033,
        0.08360834419727325,
        0.999100923538208
      ],
      "min": [
        -0.9158701300621033,
        -0.9925999641418457,
        -0.9964588284492493
      ],
      "type": "VEC3"
    },
    {
      "bufferView": 1,
      "byteOffset": 17000,
      "componentType": 5126,
      "count": 374,
      "max": [
        0.4284670054912567,
        -0.765625
      ],
      "min": [
        0.10931400209665298,
        -0.8623049855232239
      ],
      "type": "VEC2"
    },
    {
      "bufferView": 0,
      "byteOffset": 36216,
      "componentType": 5125,
      "count": 1488,
      "type": "SCALAR"
    },
    {
      "bufferView": 2,
      "byteOffset": 59976,
      "componentType": 5126,
      "count": 3215,
      "max": [
        13.037616729736328,
        -6.561150074005127,
        24.162715911865234
      ],
      "min": [
        -13.037641525268555,
        -17.87723159790039,
        -17.214061737060547
      ],
      "type": "VEC3"
    },
    {
      "bufferView": 2,
      "byteOffset": 98556,
      "componentType": 5126,
      "count": 3215,
      "max": [
        0.9994909763336182,
        1.0,
        0.9997701048851013
      ],
      "min": [
        -0.9994909763336182,
        -0.9999977946281433,
        -1.0
      ],
      "type": "VEC3"
    },
    {
      "bufferView": 1,
      "byteOffset": 19992,
      "componentType": 5126,
      "count": 3215,
      "max": [
        0.9951170086860657,
        -0.0039059999398887157
      ],
      "min": [
        0.0022430000826716423,
        -0.9960939884185791
      ],
      "type": "VEC2"
    },
    {
      "bufferView": 0,
      "byteOffset": 42168,
      "componentType": 5125,
      "count": 12996,
      "type": "SCALAR"
    },
    {
      "bufferView": 2,
      "byteOffset": 137136,
      "componentType": 5126,
      "count": 2053,
      "max": [
        15.702025413513184,
        -0.0,
        18.214950561523438
      ],
      "min": [
        -15.702025413513184,
        -22.942092895507813,
        -23.717172622680664
      ],
      "type": "VEC3"
    },
    {
      "bufferView": 2,
      "byteOffset": 161772,
      "componentType": 5126,
      "count": 2053,
      "max": [
        1.0,
        0.999944806098938,
        0.9996318221092224
      ],
      "min": [
        -1.0,
        -0.9998167753219604,
        -0.9992117881774902
      ],
      "type": "VEC3"
    },
    {
      "bufferView": 1,
      "byteOffset": 45712,
      "componentType": 5126,
      "count": 2053,
      "max": [
        0.9926760196685791,
        0.9960939884185791
      ],
      "min": [
        -0.9833980202674866,
        0.002440999960526824
      ],
      "type": "VEC2"
    },
    {
      "bufferView": 0,
      "byteOffset": 94152,
      "componentType": 5125,
      "count": 8832,
      "type": "SCALAR"
    },
    {
      "bufferView": 2,
      "byteOffset": 186408,
      "componentType": 5126,
      "count": 110,
      "max": [
        2.7792680263519287,
        -15.023159980773926,
        22.211666107177734
      ],
      "min": [
        -2.7792680263519287,
        -16.04967498779297,
        20.076034545898438
      ],
      "type": "VEC3"
    },
    {
      "bufferView": 2,
      "byteOffset": 187728,
      "componentType": 5126,
      "count": 110,
      "max": [
        0.8494120240211487,
        -0.5271391272544861,
        0.5435709357261658
      ],
      "min": [
        -0.8494120240211487,
        -0.994188129901886,
        -0.2514706552028656
      ],
      "type": "VEC3"
    },
    {
      "bufferView": 1,
      "byteOffset": 62136,
      "componentType": 5126,
      "count": 110,
      "max": [
        -4.015625,
        0.8212890028953552
      ],
      "min": [
        -4.984375,
        0.223144993185997
      ],
      "type": "VEC2"
    },
    {
      "bufferView": 0,
      "byteOffset": 129480,
      "componentType": 5125,
      "count": 528,
      "type": "SCALAR"
    }
  ],
  "asset": {
    "extras": {
      "author": "judasben29 (https://sketchfab.com/judasben29)",
      "license": "CC-BY-4.0 (http://creativecommons.org/licenses/by/4.0/)",
      "source": "https://sketchfab.com/3d-models/disney-buzz-8208ec4c0f204a0f96f41fb4154264ce",
      "title": "Disney Buzz"
    },
    "generator": "Sketchfab-12.66.0",
    "version": "2.0"
  },
  "bufferViews": [
    {
      "buffer": 0,
      "byteLength": 131592,
      "name": "floatBufferViews",
      "target": 34963
    },
    {
      "buffer": 0,
      "byteLength": 63016,
      "byteOffset": 131592,
      "byteStride": 8,
      "name": "floatBufferViews",
      "target": 34962
    },
    {
      "buffer": 0,
      "byteLength": 189048,
      "byteOffset": 194608,
      "byteStride": 12,
      "name": "floatBufferViews",
      "target": 34962
    }
  ],
  "buffers": [
    {
      "byteLength": 383656,
      "uri": "scene.bin"
    }
  ],
  "images": [
    {
      "uri": "textures/material_baseColor.png"
    },
    {
      "uri": "textures/material_1_baseColor.png"
    },
    {
      "uri": "textures/material_3_baseColor.png"
    },
    {
      "uri": "textures/material_4_baseColor.png"
    }
  ],
  "materials": [
    {
      "doubleSided": true,
      "name": "material",
      "pbrMetallicRoughness": {
        "baseColorTexture": {
          "index": 0
        },
        "metallicFactor": 0.0,
        "roughnessFactor": 0.6
      }
    },
    {
      "doubleSided": true,
      "name": "material_1",
      "pbrMetallicRoughness": {
        "baseColorTexture": {
          "index": 1
        },
        "metallicFactor": 0.0,
        "roughnessFactor": 0.6
      }
    },
    {
      "doubleSided": true,
      "name": "material_2",
      "pbrMetallicRoughness": {
        "baseColorTexture": {
          "index": 1
        },
        "metallicFactor": 0.0,
        "roughnessFactor": 0.6
      }
    },
    {
      "doubleSided": true,
      "name": "material_3",
      "pbrMetallicRoughness": {
        "baseColorTexture": {
          "index": 2
        },
        "metallicFactor": 0.0,
        "roughnessFactor": 0.6
      }
    },
    {
      "doubleSided": true,
      "name": "material_4",
      "pbrMetallicRoughness": {
        "baseColorTexture": {
          "index": 3
        },
        "metallicFactor": 0.0,
        "roughnessFactor": 0.6
      }
    }
  ],
  "meshes": [
    {
      "name": "Object_0",
      "primitives": [
        {
          "attributes": {
            "NORMAL": 1,
            "POSITION": 0,
            "TEXCOORD_0": 2
          },
          "indices": 3,
          "material": 0,
          "mode": 4
        }
      ]
    },
    {
      "name": "Object_1",
      "primitives": [
        {
          "attributes": {
            "NORMAL": 5,
            "POSITION": 4,
            "TEXCOORD_0": 6
          },
          "indices": 7,
          "material": 1,
          "mode": 4
        }
      ]
    },
    {
      "name": "Object_2",
      "primitives": [
        {
          "attributes": {
            "NORMAL": 9,
            "POSITION": 8,
            "TEXCOORD_0": 10
          },
          "indices": 11,
          "material": 2,
          "mode": 4
        }
      ]
    },
    {
      "name": "Object_3",
      "primitives": [
        {
          "attributes": {
            "NORMAL": 13,
            "POSITION": 12,
            "TEXCOORD_0": 14
          },
          "indices": 15,
          "material": 3,
          "mode": 4
        }
      ]
    },
    {
      "name": "Object_4",
      "primitives": [
        {
          "attributes": {
            "NORMAL": 17,
            "POSITION": 16,
            "TEXCOORD_0": 18
          },
          "indices": 19,
          "material": 4,
          "mode": 4
        }
      ]
    }
  ],
  "nodes": [
    {
      "children": [
        1
      ],
      "matrix": [
        1.0,
        0.0,
        0.0,
        0.0,
        0.0,
        2.220446049250313e-16,
        -1.0,
        0.0,
        0.0,
        1.0,
        2.220446049250313e-16,
        0.0,
        0.0,
        0.0,
        0.0,
        1.0
      ],
      "name": "Sketchfab_model"
    },
    {
      "children": [
        2,
        3,
        4,
        5,
        6
      ],
      "name": "buzz.obj.cleaner.gles"
    },
    {
      "mesh": 0,
      "name": "Object_2"
    },
    {
      "mesh": 1,
      "name": "Object_3"
    },
    {
      "mesh": 2,
      "name": "Object_4"
    },
    {
      "mesh": 3,
      "name": "Object_5"
    },
    {
      "mesh": 4,
      "name": "Object_6"
    }
  ],
  "samplers": [
    {
      "magFilter": 9729,
      "minFilter": 9987,
      "wrapS": 10497,
      "wrapT": 10497
    }
  ],
  "scene": 0,
  "scenes": [
    {
      "name": "Sketchfab_Scene",
      "nodes": [
        0
      ]
    }
  ],
  "textures": [
    {
      "sampler": 0,
      "source": 0
    },
    {
      "sampler": 0,
      "source": 1
    },
    {
      "sampler": 0,
      "source": 2
    },
    {
      "sampler": 0,
      "source": 3
    }
  ]
}
