{
  "accessors": [
    {
      "bufferView": 2,
      "componentType": 5126,
      "count": 1924,
      "max": [
        0.5763030052185059,
        0.14973099529743195,
        0.7426919937133789
      ],
      "min": [
        -0.5763030052185059,
        -0.27056801319122314,
        0.0010319999419152737
      ],
      "type": "VEC3"
    },
    {
      "bufferView": 2,
      "byteOffset": 23088,
      "componentType": 5126,
      "count": 1924,
      "max": [
        0.9960899353027344,
        0.9999871253967285,
        0.999788224697113
      ],
      "min": [
        -0.9958822727203369,
        -0.99991774559021,
        -0.9999998807907104
      ],
      "type": "VEC3"
    },
    {
      "bufferView": 1,
      "componentType": 5126,
      "count": 1924,
      "max": [
        0.8505110144615173,
        0.9939579963684082
      ],
      "min": [
        0.013999000191688538,
        0.26207301020622253
      ],
      "type": "VEC2"
    },
    {
      "bufferView": 0,
      "componentType": 5125,
      "count": 8946,
      "type": "SCALAR"
    },
    {
      "bufferView": 2,
      "byteOffset": 46176,
      "componentType": 5126,
      "count": 68,
      "max": [
        0.06000100076198578,
        -0.0359559990465641,
        0.9618899822235107
      ],
      "min": [
        -0.05999299883842468,
        -0.0905039981007576,
        0.8618919849395752
      ],
      "type": "VEC3"
    },
    {
      "bufferView": 2,
      "byteOffset": 46992,
      "componentType": 5126,
      "count": 68,
      "max": [
        0.9294077754020691,
        -0.3458186984062195,
        0.42742592096328735
      ],
      "min": [
        -0.9294077754020691,
        -0.9427418112754822,
        -0.011800523847341537
      ],
      "type": "VEC3"
    },
    {
      "bufferView": 1,
      "byteOffset": 15392,
      "componentType": 5126,
      "count": 68,
      "max": [
        0.905718982219696,
        1.1382609605789185
      ],
      "min": [
        0.07389699667692184,
        0.11302900314331055
      ],
      "type": "VEC2"
    },
    {
      "bufferView": 0,
      "byteOffset": 35784,
      "componentType": 5125,
      "count": 234,
      "type": "SCALAR"
    },
    {
      "bufferView": 2,
      "byteOffset": 47808,
      "componentType": 5126,
      "count": 1651,
      "max": [
        0.23243600130081177,
        0.11694300174713135,
        1.3360340595245361
      ],
      "min": [
        -0.23242799937725067,
        -0.1322759985923767,
        0.7339119911193848
      ],
      "type": "VEC3"
    },
    {
      "bufferView": 2,
      "byteOffset": 67620,
      "componentType": 5126,
      "count": 1651,
      "max": [
        0.9921401143074036,
        0.9999847412109375,
        0.9999731779098511
      ],
      "min": [
        -0.9921359419822693,
        -0.9996169209480286,
        -0.9999804496765137
      ],
      "type": "VEC3"
    },
    {
      "bufferView": 1,
      "byteOffset": 15936,
      "componentType": 5126,
      "count": 1651,
      "max": [
        0.9755730032920837,
        0.9682199954986572
      ],
      "min": [
        0.008639000356197357,
        0.009557999670505524
      ],
      "type": "VEC2"
    },
    {
      "bufferView": 0,
      "byteOffset": 36720,
      "componentType": 5125,
      "count": 7539,
      "type": "SCALAR"
    }
  ],
  "asset": {
    "extras": {
      "author": "Neut2000 (https://sketchfab.com/Neut2000)",
      "license": "CC-BY-4.0 (http://creativecommons.org/licenses/by/4.0/)",
      "source": "https://sketchfab.com/3d-models/looney-tunes-world-of-mayhem-bugs-bunny-52cb74ce1579463e8a0ffa658f1cab2c",
      "title": "Looney Tunes World Of Mayhem Bugs Bunny"
    },
    "generator": "Sketchfab-12.67.0",
    "version": "2.0"
  },
  "bufferViews": [
    {
      "buffer": 0,
      "byteLength": 66876,
      "name": "floatBufferViews",
      "target": 34963
    },
    {
      "buffer": 0,
      "byteLength": 29144,
      "byteOffset": 66876,
      "byteStride": 8,
      "name": "floatBufferViews",
      "target": 34962
    },
    {
      "buffer": 0,
      "byteLength": 87432,
      "byteOffset": 96020,
      "byteStride": 12,
      "name": "floatBufferViews",
      "target": 34962
    }
  ],
  "buffers": [
    {
      "byteLength": 183452,
      "uri": "scene.bin"
    }
  ],
  "images": [
    {
      "uri": "textures/BugsBody_baseColor.png"
    },
    {
      "uri": "textures/BugsEyes_baseColor.png"
    },
    {
      "uri": "textures/BugsHead_baseColor.png"
    }
  ],
  "materials": [
    {
      "doubleSided": true,
      "name": "BugsBody",
      "pbrMetallicRoughness": {
        "baseColorTexture": {
          "index": 0
        },
        "metallicFactor": 0.0,
        "roughnessFactor": 0.8443131370761116
      }
    },
    {
      "doubleSided": true,
      "name": "BugsEyes",
      "pbrMetallicRoughness": {
        "baseColorTexture": {
          "index": 1
        },
        "metallicFactor": 0.0,
        "roughnessFactor": 0.8443131370761116
      }
    },
    {
      "doubleSided": true,
      "name": "BugsHead",
      "pbrMetallicRoughness": {
        "baseColorTexture": {
          "index": 2
        },
        "metallicFactor": 0.0,
        "roughnessFactor": 0.8443131370761116
      }
    }
  ],
  "meshes": [
    {
      "name": "Object_0",
      "primitives": [
        {
          "attributes": {
            "NORMAL": 1,
            "POSITION": 0,
            "TEXCOORD_0": 2
          },
          "indices": 3,
          "material": 0,
          "mode": 4
        }
      ]
    },
    {
      "name": "Object_1",
      "primitives": [
        {
          "attributes": {
            "NORMAL": 5,
            "POSITION": 4,
            "TEXCOORD_0": 6
          },
          "indices": 7,
          "material": 1,
          "mode": 4
        }
      ]
    },
    {
      "name": "Object_2",
      "primitives": [
        {
          "attributes": {
            "NORMAL": 9,
            "POSITION": 8,
            "TEXCOORD_0": 10
          },
          "indices": 11,
          "material": 2,
          "mode": 4
        }
      ]
    }
  ],
  "nodes": [
    {
      "children": [
        1
      ],
      "matrix": [
        1.0,
        0.0,
        0.0,
        0.0,
        0.0,
        2.220446049250313e-16,
        -1.0,
        0.0,
        0.0,
        1.0,
        2.220446049250313e-16,
        0.0,
        0.0,
        0.0,
        0.0,
        1.0
      ],
      "name": "Sketchfab_model"
    },
    {
      "children": [
        2,
        3,
        4
      ],
      "name": "BugsBunny.obj.cleaner.materialmerger.gles"
    },
    {
      "mesh": 0,
      "name": "Object_2"
    },
    {
      "mesh": 1,
      "name": "Object_3"
    },
    {
      "mesh": 2,
      "name": "Object_4"
    }
  ],
  "samplers": [
    {
      "magFilter": 9729,
      "minFilter": 9987,
      "wrapS": 10497,
      "wrapT": 10497
    }
  ],
  "scene": 0,
  "scenes": [
    {
      "name": "Sketchfab_Scene",
      "nodes": [
        0
      ]
    }
  ],
  "textures": [
    {
      "sampler": 0,
      "source": 0
    },
    {
      "sampler": 0,
      "source": 1
    },
    {
      "sampler": 0,
      "source": 2
    }
  ]
}
