{
  "accessors": [
    {
      "bufferView": 2,
      "componentType": 5126,
      "count": 1818,
      "max": [
        0.044747352600097656,
        0.07850602269172668,
        0.06131823733448982
      ],
      "min": [
        -0.04264618083834648,
        -0.08149398118257523,
        -3.903538527083583e-05
      ],
      "type": "VEC3"
    },
    {
      "bufferView": 2,
      "byteOffset": 21816,
      "componentType": 5126,
      "count": 1818,
      "max": [
        0.9991967678070068,
        0.9980344772338867,
        0.9999929666519165
      ],
      "min": [
        -0.9998397827148438,
        -0.9991704225540161,
        -0.9996367692947388
      ],
      "type": "VEC3"
    },
    {
      "bufferView": 3,
      "componentType": 5126,
      "count": 1818,
      "max": [
        0.998977541923523,
        0.966998815536499,
        0.998809278011322,
        1.0
      ],
      "min": [
        -0.9993544220924377,
        -0.9998870491981506,
        -0.9997448325157166,
        1.0
      ],
      "type": "VEC4"
    },
    {
      "bufferView": 1,
      "componentType": 5126,
      "count": 1818,
      "max": [
        0.9998084902763367,
        0.9626114964485168
      ],
      "min": [
        0.0001915445609483868,
        0.0001915445609483868
      ],
      "type": "VEC2"
    },
    {
      "bufferView": 1,
      "byteOffset": 14544,
      "componentType": 5126,
      "count": 1818,
      "max": [
        0.9998084902763367,
        0.9626114964485168
      ],
      "min": [
        0.0001915445609483868,
        0.0001915445609483868
      ],
      "type": "VEC2"
    },
    {
      "bufferView": 0,
      "componentType": 5125,
      "count": 9648,
      "type": "SCALAR"
    }
  ],
  "asset": {
    "extras": {
      "author": "Meerschaum Digital (https://sketchfab.com/meerschaumdigital)",
      "license": "CC-BY-4.0 (http://creativecommons.org/licenses/by/4.0/)",
      "source": "https://sketchfab.com/3d-models/sub-sandwich-game-ready-2k-pbr-b7aa7644a6f9481b89da16eb2b9ca39b",
      "title": "Sub Sandwich (Game Ready / 2K PBR)"
    },
    "generator": "Sketchfab-12.68.0",
    "version": "2.0"
  },
  "bufferViews": [
    {
      "buffer": 0,
      "byteLength": 38592,
      "name": "floatBufferViews",
      "target": 34963
    },
    {
      "buffer": 0,
      "byteLength": 29088,
      "byteOffset": 38592,
      "byteStride": 8,
      "name": "floatBufferViews",
      "target": 34962
    },
    {
      "buffer": 0,
      "byteLength": 43632,
      "byteOffset": 67680,
      "byteStride": 12,
      "name": "floatBufferViews",
      "target": 34962
    },
    {
      "buffer": 0,
      "byteLength": 29088,
      "byteOffset": 111312,
      "byteStride": 16,
      "name": "floatBufferViews",
      "target": 34962
    }
  ],
  "buffers": [
    {
      "byteLength": 140400,
      "uri": "scene.bin"
    }
  ],
  "images": [
    {
      "uri": "textures/Sub_Sandwich_baseColor.png"
    },
    {
      "uri": "textures/Sub_Sandwich_metallicRoughness.png"
    },
    {
      "uri": "textures/Sub_Sandwich_normal.png"
    }
  ],
  "materials": [
    {
      "doubleSided": true,
      "name": "Sub_Sandwich",
      "normalTexture": {
        "index": 2
      },
      "occlusionTexture": {
        "index": 1
      },
      "pbrMetallicRoughness": {
        "baseColorTexture": {
          "index": 0
        },
        "metallicRoughnessTexture": {
          "index": 1
        }
      }
    }
  ],
  "meshes": [
    {
      "name": "Sub Sandwich_Sub Sandwich_0",
      "primitives": [
        {
          "attributes": {
            "NORMAL": 1,
            "POSITION": 0,
            "TANGENT": 2,
            "TEXCOORD_0": 3,
            "TEXCOORD_1": 4
          },
          "indices": 5,
          "material": 0,
          "mode": 4
        }
      ]
    }
  ],
  "nodes": [
    {
      "children": [
        1
      ],
      "matrix": [
        1.0,
        0.0,
        0.0,
        0.0,
        0.0,
        2.220446049250313e-16,
        -1.0,
        0.0,
        0.0,
        1.0,
        2.220446049250313e-16,
        0.0,
        0.0,
        3.8330620100168744e-07,
        5.1276010104573685e-09,
        1.0
      ],
      "name": "Sketchfab_model"
    },
    {
      "children": [
        2
      ],
      "matrix": [
        1.0,
        0.0,
        0.0,
        0.0,
        0.0,
        0.0,
        1.0,
        0.0,
        0.0,
        -1.0,
        0.0,
        0.0,
        0.0,
        0.0,
        0.0,
        1.0
      ],
      "name": "30901e4d1e6f43a29d4d9dc7d2c6c2b8.fbx"
    },
    {
      "children": [
        3
      ],
      "name": "RootNode"
    },
    {
      "children": [
        4
      ],
      "matrix": [
        100.0,
        0.0,
        0.0,
        0.0,
        0.0,
        -1.629206793918314e-05,
        -99.99999999999868,
        0.0,
        0.0,
        99.99999999999868,
        -1.629206793918314e-05,
        0.0,
        0.0,
        0.0,
        0.0,
        1.0
      ],
      "name": "Sub Sandwich"
    },
    {
      "mesh": 0,
      "name": "Sub Sandwich_Sub Sandwich_0"
    }
  ],
  "samplers": [
    {
      "magFilter": 9729,
      "minFilter": 9987,
      "wrapS": 10497,
      "wrapT": 10497
    }
  ],
  "scene": 0,
  "scenes": [
    {
      "name": "Sketchfab_Scene",
      "nodes": [
        0
      ]
    }
  ],
  "textures": [
    {
      "sampler": 0,
      "source": 0
    },
    {
      "sampler": 0,
      "source": 1
    },
    {
      "sampler": 0,
      "source": 2
    }
  ]
}
