{
  "accessors": [
    {
      "bufferView": 2,
      "componentType": 5126,
      "count": 2331,
      "max": [
        26.51020050048828,
        58.2411003112793,
        181.60659790039063
      ],
      "min": [
        -26.51020050048828,
        -88.23880004882813,
        0.0
      ],
      "type": "VEC3"
    },
    {
      "bufferView": 2,
      "byteOffset": 27972,
      "componentType": 5126,
      "count": 2331,
      "max": [
        1.0,
        0.9999490976333618,
        0.9997308850288391
      ],
      "min": [
        -1.0,
        -0.9999027252197266,
        -1.0
      ],
      "type": "VEC3"
    },
    {
      "bufferView": 1,
      "componentType": 5126,
      "count": 2331,
      "max": [
        0.9955999851226807,
        0.9916999936103821
      ],
      "min": [
        0.003700000001117587,
        0.020999999716877937
      ],
      "type": "VEC2"
    },
    {
      "bufferView": 0,
      "componentType": 5125,
      "count": 9999,
      "type": "SCALAR"
    },
    {
      "bufferView": 2,
      "byteOffset": 55944,
      "componentType": 5126,
      "count": 1986,
      "max": [
        26.791900634765625,
        78.7157974243164,
        174.57000732421875
      ],
      "min": [
        -26.791900634765625,
        -54.47560119628906,
        -0.0
      ],
      "type": "VEC3"
    },
    {
      "bufferView": 2,
      "byteOffset": 79776,
      "componentType": 5126,
      "count": 1986,
      "max": [
        1.0,
        0.9999622106552124,
        0.9999966621398926
      ],
      "min": [
        -1.0,
        -0.9999027252197266,
        -1.0
      ],
      "type": "VEC3"
    },
    {
      "bufferView": 1,
      "byteOffset": 18648,
      "componentType": 5126,
      "count": 1986,
      "max": [
        0.9965999722480774,
        0.9979000091552734
      ],
      "min": [
        0.0038999998942017555,
        0.0034000000450760126
      ],
      "type": "VEC2"
    },
    {
      "bufferView": 0,
      "byteOffset": 39996,
      "componentType": 5125,
      "count": 9519,
      "type": "SCALAR"
    },
    {
      "bufferView": 2,
      "byteOffset": 103608,
      "componentType": 5126,
      "count": 208,
      "max": [
        14.399499893188477,
        -65.21939849853516,
        154.7126007080078
      ],
      "min": [
        -14.399499893188477,
        -81.39540100097656,
        132.35279846191406
      ],
      "type": "VEC3"
    },
    {
      "bufferView": 2,
      "byteOffset": 106104,
      "componentType": 5126,
      "count": 208,
      "max": [
        0.9962226152420044,
        0.6989331245422363,
        0.9966278672218323
      ],
      "min": [
        -0.9962226152420044,
        -0.9879100322723389,
        -0.9507008790969849
      ],
      "type": "VEC3"
    },
    {
      "bufferView": 1,
      "byteOffset": 34536,
      "componentType": 5126,
      "count": 208,
      "max": [
        1.6641000509262085,
        0.8705000281333923
      ],
      "min": [
        1.1298999786376953,
        0.17970000207424164
      ],
      "type": "VEC2"
    },
    {
      "bufferView": 0,
      "byteOffset": 78072,
      "componentType": 5125,
      "count": 1056,
      "type": "SCALAR"
    },
    {
      "bufferView": 2,
      "byteOffset": 108600,
      "componentType": 5126,
      "count": 111,
      "max": [
        14.574000358581543,
        -58.29439926147461,
        124.81890106201172
      ],
      "min": [
        -14.574000358581543,
        -82.55359649658203,
        100.35549926757813
      ],
      "type": "VEC3"
    },
    {
      "bufferView": 2,
      "byteOffset": 109932,
      "componentType": 5126,
      "count": 111,
      "max": [
        0.9897139668464661,
        0.38428252935409546,
        0.1568048596382141
      ],
      "min": [
        -0.9928663969039917,
        -0.6461158394813538,
        -0.9890022873878479
      ],
      "type": "VEC3"
    },
    {
      "bufferView": 1,
      "byteOffset": 36200,
      "componentType": 5126,
      "count": 111,
      "max": [
        -0.007199999876320362,
        0.9869999885559082
      ],
      "min": [
        -0.9926999807357788,
        0.46480000019073486
      ],
      "type": "VEC2"
    },
    {
      "bufferView": 0,
      "byteOffset": 82296,
      "componentType": 5125,
      "count": 480,
      "type": "SCALAR"
    }
  ],
  "asset": {
    "extras": {
      "author": "Neut2000 (https://sketchfab.com/Neut2000)",
      "license": "CC-BY-4.0 (http://creativecommons.org/licenses/by/4.0/)",
      "source": "https://sketchfab.com/3d-models/disney-infinity-bullseye-db42f9d00cc941c6815c8d8b2d5a67d0",
      "title": "Disney Infinity Bullseye"
    },
    "generator": "Sketchfab-12.67.0",
    "version": "2.0"
  },
  "bufferViews": [
    {
      "buffer": 0,
      "byteLength": 84216,
      "name": "floatBufferViews",
      "target": 34963
    },
    {
      "buffer": 0,
      "byteLength": 37088,
      "byteOffset": 84216,
      "byteStride": 8,
      "name": "floatBufferViews",
      "target": 34962
    },
    {
      "buffer": 0,
      "byteLength": 111264,
      "byteOffset": 121304,
      "byteStride": 12,
      "name": "floatBufferViews",
      "target": 34962
    }
  ],
  "buffers": [
    {
      "byteLength": 232568,
      "uri": "scene.bin"
    }
  ],
  "images": [
    {
      "uri": "textures/Material__43_baseColor.png"
    },
    {
      "uri": "textures/Material__47_baseColor.png"
    },
    {
      "uri": "textures/Material__48_baseColor.png"
    }
  ],
  "materials": [
    {
      "doubleSided": true,
      "emissiveTexture": {
        "index": 0
      },
      "name": "Material__43",
      "pbrMetallicRoughness": {
        "baseColorTexture": {
          "index": 0
        },
        "metallicFactor": 0.0
      }
    },
    {
      "doubleSided": true,
      "emissiveTexture": {
        "index": 1
      },
      "name": "Material__47",
      "pbrMetallicRoughness": {
        "baseColorTexture": {
          "index": 1
        },
        "metallicFactor": 0.0
      }
    },
    {
      "doubleSided": true,
      "emissiveTexture": {
        "index": 2
      },
      "name": "Material__48",
      "pbrMetallicRoughness": {
        "baseColorTexture": {
          "index": 2
        },
        "metallicFactor": 0.0
      }
    }
  ],
  "meshes": [
    {
      "name": "Object_0",
      "primitives": [
        {
          "attributes": {
            "NORMAL": 1,
            "POSITION": 0,
            "TEXCOORD_0": 2
          },
          "indices": 3,
          "material": 0,
          "mode": 4
        }
      ]
    },
    {
      "name": "Object_1",
      "primitives": [
        {
          "attributes": {
            "NORMAL": 5,
            "POSITION": 4,
            "TEXCOORD_0": 6
          },
          "indices": 7,
          "material": 0,
          "mode": 4
        }
      ]
    },
    {
      "name": "Object_2",
      "primitives": [
        {
          "attributes": {
            "NORMAL": 9,
            "POSITION": 8,
            "TEXCOORD_0": 10
          },
          "indices": 11,
          "material": 1,
          "mode": 4
        }
      ]
    },
    {
      "name": "Object_3",
      "primitives": [
        {
          "attributes": {
            "NORMAL": 13,
            "POSITION": 12,
            "TEXCOORD_0": 14
          },
          "indices": 15,
          "material": 2,
          "mode": 4
        }
      ]
    }
  ],
  "nodes": [
    {
      "children": [
        1
      ],
      "matrix": [
        1.0,
        0.0,
        0.0,
        0.0,
        0.0,
        2.220446049250313e-16,
        -1.0,
        0.0,
        0.0,
        1.0,
        2.220446049250313e-16,
        0.0,
        0.0,
        0.0,
        0.0,
        1.0
      ],
      "name": "Sketchfab_model"
    },
    {
      "children": [
        2,
        3,
        4,
        5
      ],
      "name": "Bullsey.obj.cleaner.materialmerger.gles"
    },
    {
      "mesh": 0,
      "name": "Object_2"
    },
    {
      "mesh": 1,
      "name": "Object_3"
    },
    {
      "mesh": 2,
      "name": "Object_4"
    },
    {
      "mesh": 3,
      "name": "Object_5"
    }
  ],
  "samplers": [
    {
      "magFilter": 9729,
      "minFilter": 9987,
      "wrapS": 10497,
      "wrapT": 10497
    }
  ],
  "scene": 0,
  "scenes": [
    {
      "name": "Sketchfab_Scene",
      "nodes": [
        0
      ]
    }
  ],
  "textures": [
    {
      "sampler": 0,
      "source": 0
    },
    {
      "sampler": 0,
      "source": 1
    },
    {
      "sampler": 0,
      "source": 2
    }
  ]
}
