{
  "accessors": [
    {
      "bufferView": 2,
      "componentType": 5126,
      "count": 25404,
      "max": [
        0.14498500525951385,
        0.5884079933166504,
        0.7031210064888
      ],
      "min": [
        -0.14791899919509888,
        0.3030880093574524,
        -0.6888539791107178
      ],
      "type": "VEC3"
    },
    {
      "bufferView": 2,
      "byteOffset": 304848,
      "componentType": 5126,
      "count": 25404,
      "max": [
        0.9989832043647766,
        0.9999775290489197,
        0.9992605447769165
      ],
      "min": [
        -0.9992392063140869,
        -0.9999815225601196,
        -0.9996985197067261
      ],
      "type": "VEC3"
    },
    {
      "bufferView": 1,
      "componentType": 5126,
      "count": 25404,
      "max": [
        1.0,
        -0.0
      ],
      "min": [
        0.0,
        -1.0
      ],
      "type": "VEC2"
    },
    {
      "bufferView": 0,
      "componentType": 5125,
      "count": 25404,
      "type": "SCALAR"
    },
    {
      "bufferView": 2,
      "byteOffset": 609696,
      "componentType": 5126,
      "count": 912,
      "max": [
        0.21480299532413483,
        0.6588510274887085,
        0.8525559902191162
      ],
      "min": [
        -0.21480299532413483,
        -0.031043000519275665,
        -0.8497629761695862
      ],
      "type": "VEC3"
    },
    {
      "bufferView": 2,
      "byteOffset": 620640,
      "componentType": 5126,
      "count": 912,
      "max": [
        0.9995062351226807,
        0.9760352373123169,
        0.999469518661499
      ],
      "min": [
        -0.9995846152305603,
        -0.9689362049102783,
        -0.9971567392349243
      ],
      "type": "VEC3"
    },
    {
      "bufferView": 1,
      "byteOffset": 203232,
      "componentType": 5126,
      "count": 912,
      "max": [
        1.0,
        -0.0
      ],
      "min": [
        0.0,
        -1.0
      ],
      "type": "VEC2"
    },
    {
      "bufferView": 0,
      "byteOffset": 101616,
      "componentType": 5125,
      "count": 912,
      "type": "SCALAR"
    },
    {
      "bufferView": 2,
      "byteOffset": 631584,
      "componentType": 5126,
      "count": 768,
      "max": [
        0.16137099266052246,
        0.4250450134277344,
        0.7746469974517822
      ],
      "min": [
        -0.16137099266052246,
        -0.01369400043040514,
        -0.7760589718818665
      ],
      "type": "VEC3"
    },
    {
      "bufferView": 2,
      "byteOffset": 640800,
      "componentType": 5126,
      "count": 768,
      "max": [
        0.9975199699401855,
        0.9760414958000183,
        0.9417088031768799
      ],
      "min": [
        -0.9974819421768188,
        -0.9705882668495178,
        -0.9411704540252686
      ],
      "type": "VEC3"
    },
    {
      "bufferView": 1,
      "byteOffset": 210528,
      "componentType": 5126,
      "count": 768,
      "max": [
        0.875,
        -0.0
      ],
      "min": [
        0.125,
        -1.0
      ],
      "type": "VEC2"
    },
    {
      "bufferView": 0,
      "byteOffset": 105264,
      "componentType": 5125,
      "count": 768,
      "type": "SCALAR"
    },
    {
      "bufferView": 2,
      "byteOffset": 650016,
      "componentType": 5126,
      "count": 1786,
      "max": [
        0.14760300517082214,
        0.5962049961090088,
        0.7329879999160767
      ],
      "min": [
        -0.1751209944486618,
        0.276419997215271,
        -0.742713987827301
      ],
      "type": "VEC3"
    },
    {
      "bufferView": 2,
      "byteOffset": 671448,
      "componentType": 5126,
      "count": 1786,
      "max": [
        0.9987544417381287,
        0.9964588284492493,
        0.99876868724823
      ],
      "min": [
        -0.9987545609474182,
        -0.9964593648910522,
        -0.9987683296203613
      ],
      "type": "VEC3"
    },
    {
      "bufferView": 1,
      "byteOffset": 216672,
      "componentType": 5126,
      "count": 1786,
      "max": [
        1.0,
        -0.0
      ],
      "min": [
        0.0,
        -1.0
      ],
      "type": "VEC2"
    },
    {
      "bufferView": 0,
      "byteOffset": 108336,
      "componentType": 5125,
      "count": 1788,
      "type": "SCALAR"
    },
    {
      "bufferView": 2,
      "byteOffset": 692880,
      "componentType": 5126,
      "count": 1584,
      "max": [
        0.11698299646377563,
        0.6083660125732422,
        0.6790519952774048
      ],
      "min": [
        -0.11810799688100815,
        0.35493800044059753,
        -0.5995050072669983
      ],
      "type": "VEC3"
    },
    {
      "bufferView": 2,
      "byteOffset": 711888,
      "componentType": 5126,
      "count": 1584,
      "max": [
        0.9923257827758789,
        0.9972347617149353,
        0.9997108578681946
      ],
      "min": [
        -0.9945440888404846,
        -0.9972298741340637,
        -0.9998329877853394
      ],
      "type": "VEC3"
    },
    {
      "bufferView": 1,
      "byteOffset": 230960,
      "componentType": 5126,
      "count": 1584,
      "max": [
        0.875,
        -0.0
      ],
      "min": [
        0.125,
        -1.0
      ],
      "type": "VEC2"
    },
    {
      "bufferView": 0,
      "byteOffset": 115488,
      "componentType": 5125,
      "count": 1584,
      "type": "SCALAR"
    }
  ],
  "asset": {
    "extras": {
      "author": "IronEqual (https://sketchfab.com/ie-niels)",
      "license": "CC-BY-4.0 (http://creativecommons.org/licenses/by/4.0/)",
      "source": "https://sketchfab.com/3d-models/taco-from-poly-by-google-6e790dbdc2db497c82e8e2379eba7a0c",
      "title": "Taco from Poly by Google"
    },
    "generator": "Sketchfab-12.65.0",
    "version": "2.0"
  },
  "bufferViews": [
    {
      "buffer": 0,
      "byteLength": 121824,
      "name": "floatBufferViews",
      "target": 34963
    },
    {
      "buffer": 0,
      "byteLength": 243632,
      "byteOffset": 121824,
      "byteStride": 8,
      "name": "floatBufferViews",
      "target": 34962
    },
    {
      "buffer": 0,
      "byteLength": 730896,
      "byteOffset": 365456,
      "byteStride": 12,
      "name": "floatBufferViews",
      "target": 34962
    }
  ],
  "buffers": [
    {
      "byteLength": 1096352,
      "uri": "scene.bin"
    }
  ],
  "materials": [
    {
      "doubleSided": true,
      "name": "lambert4SG",
      "pbrMetallicRoughness": {
        "baseColorFactor": [
          0.39,
          0.42,
          0.03,
          1.0
        ],
        "metallicFactor": 0.0,
        "roughnessFactor": 0.969948
      }
    },
    {
      "doubleSided": true,
      "name": "lambert2SG",
      "pbrMetallicRoughness": {
        "baseColorFactor": [
          0.56,
          0.41,
          0.25,
          1.0
        ],
        "metallicFactor": 0.0,
        "roughnessFactor": 0.969948
      }
    },
    {
      "doubleSided": true,
      "name": "lambert3SG",
      "pbrMetallicRoughness": {
        "baseColorFactor": [
          0.34,
          0.1,
          0.03,
          1.0
        ],
        "metallicFactor": 0.0,
        "roughnessFactor": 0.969948
      }
    },
    {
      "doubleSided": true,
      "name": "lambert5SG",
      "pbrMetallicRoughness": {
        "baseColorFactor": [
          0.97,
          0.46,
          0.02,
          1.0
        ],
        "metallicFactor": 0.0,
        "roughnessFactor": 0.969948
      }
    },
    {
      "doubleSided": true,
      "name": "lambert6SG",
      "pbrMetallicRoughness": {
        "baseColorFactor": [
          0.62,
          0.04,
          0.03,
          1.0
        ],
        "metallicFactor": 0.0,
        "roughnessFactor": 0.969948
      }
    }
  ],
  "meshes": [
    {
      "name": "Object_0",
      "primitives": [
        {
          "attributes": {
            "NORMAL": 1,
            "POSITION": 0,
            "TEXCOORD_0": 2
          },
          "indices": 3,
          "material": 0,
          "mode": 4
        }
      ]
    },
    {
      "name": "Object_1",
      "primitives": [
        {
          "attributes": {
            "NORMAL": 5,
            "POSITION": 4,
            "TEXCOORD_0": 6
          },
          "indices": 7,
          "material": 1,
          "mode": 4
        }
      ]
    },
    {
      "name": "Object_2",
      "primitives": [
        {
          "attributes": {
            "NORMAL": 9,
            "POSITION": 8,
            "TEXCOORD_0": 10
          },
          "indices": 11,
          "material": 2,
          "mode": 4
        }
      ]
    },
    {
      "name": "Object_3",
      "primitives": [
        {
          "attributes": {
            "NORMAL": 13,
            "POSITION": 12,
            "TEXCOORD_0": 14
          },
          "indices": 15,
          "material": 3,
          "mode": 4
        }
      ]
    },
    {
      "name": "Object_4",
      "primitives": [
        {
          "attributes": {
            "NORMAL": 17,
            "POSITION": 16,
            "TEXCOORD_0": 18
          },
          "indices": 19,
          "material": 4,
          "mode": 4
        }
      ]
    }
  ],
  "nodes": [
    {
      "children": [
        1
      ],
      "matrix": [
        1.0,
        0.0,
        0.0,
        0.0,
        0.0,
        2.220446049250313e-16,
        -1.0,
        0.0,
        0.0,
        1.0,
        2.220446049250313e-16,
        0.0,
        0.0,
        0.0,
        0.0,
        1.0
      ],
      "name": "Sketchfab_model"
    },
    {
      "children": [
        2
      ],
      "name": "root"
    },
    {
      "children": [
        3
      ],
      "matrix": [
        1.0,
        0.0,
        0.0,
        0.0,
        0.0,
        2.220446049250313e-16,
        1.0,
        0.0,
        0.0,
        -1.0,
        2.220446049250313e-16,
        0.0,
        0.0,
        0.0,
        0.0,
        1.0
      ],
      "name": "GLTF_SceneRootNode"
    },
    {
      "children": [
        4,
        5,
        6,
        7,
        8
      ],
      "name": "node-0_0"
    },
    {
      "mesh": 0,
      "name": "Object_4"
    },
    {
      "mesh": 1,
      "name": "Object_5"
    },
    {
      "mesh": 2,
      "name": "Object_6"
    },
    {
      "mesh": 3,
      "name": "Object_7"
    },
    {
      "mesh": 4,
      "name": "Object_8"
    }
  ],
  "scene": 0,
  "scenes": [
    {
      "name": "Sketchfab_Scene",
      "nodes": [
        0
      ]
    }
  ]
}
