{
  "accessors": [
    {
      "bufferView": 2,
      "componentType": 5126,
      "count": 4506,
      "max": [
        1.0968960523605347,
        0.27747300267219543,
        1.1286580562591553
      ],
      "min": [
        -1.0968960523605347,
        -0.4018630087375641,
        0.012222000397741795
      ],
      "type": "VEC3"
    },
    {
      "bufferView": 2,
      "byteOffset": 54072,
      "componentType": 5126,
      "count": 4506,
      "max": [
        0.9995174407958984,
        0.9996492862701416,
        1.0
      ],
      "min": [
        -0.999517560005188,
        -1.0,
        -1.0
      ],
      "type": "VEC3"
    },
    {
      "bufferView": 1,
      "componentType": 5126,
      "count": 4506,
      "max": [
        0.9858400225639343,
        0.9897459745407104
      ],
      "min": [
        0.006949999835342169,
        0.011230000294744968
      ],
      "type": "VEC2"
    },
    {
      "bufferView": 0,
      "componentType": 5125,
      "count": 18903,
      "type": "SCALAR"
    },
    {
      "bufferView": 2,
      "byteOffset": 108144,
      "componentType": 5126,
      "count": 290,
      "max": [
        0.19273999333381653,
        -0.0330829992890358,
        1.0638799667358398
      ],
      "min": [
        -0.19273999333381653,
        -0.39469999074935913,
        0.6783999800682068
      ],
      "type": "VEC3"
    },
    {
      "bufferView": 2,
      "byteOffset": 111624,
      "componentType": 5126,
      "count": 290,
      "max": [
        0.9992275834083557,
        1.0,
        0.9992280006408691
      ],
      "min": [
        -0.9992275238037109,
        -1.0,
        -0.99922776222229
      ],
      "type": "VEC3"
    },
    {
      "bufferView": 1,
      "byteOffset": 36048,
      "componentType": 5126,
      "count": 290,
      "max": [
        0.9653319716453552,
        0.9785159826278687
      ],
      "min": [
        0.025009000673890114,
        0.026366999372839928
      ],
      "type": "VEC2"
    },
    {
      "bufferView": 0,
      "byteOffset": 75612,
      "componentType": 5125,
      "count": 1536,
      "type": "SCALAR"
    },
    {
      "bufferView": 2,
      "byteOffset": 115104,
      "componentType": 5126,
      "count": 50,
      "max": [
        0.1780419945716858,
        -0.280335009098053,
        1.0573569536209106
      ],
      "min": [
        -0.1818220019340515,
        -0.4158239960670471,
        0.7352979779243469
      ],
      "type": "VEC3"
    },
    {
      "bufferView": 2,
      "byteOffset": 115704,
      "componentType": 5126,
      "count": 50,
      "max": [
        0.8662525415420532,
        -0.43840864300727844,
        0.8909492492675781
      ],
      "min": [
        -0.870204508304596,
        -0.9858433604240417,
        -0.572068452835083
      ],
      "type": "VEC3"
    },
    {
      "bufferView": 1,
      "byteOffset": 38368,
      "componentType": 5126,
      "count": 50,
      "max": [
        0.9912109971046448,
        0.9926760196685791
      ],
      "min": [
        0.00748400017619133,
        0.11230500042438507
      ],
      "type": "VEC2"
    },
    {
      "bufferView": 0,
      "byteOffset": 81756,
      "componentType": 5125,
      "count": 234,
      "type": "SCALAR"
    }
  ],
  "asset": {
    "extras": {
      "author": "Neut2000 (https://sketchfab.com/Neut2000)",
      "license": "CC-BY-4.0 (http://creativecommons.org/licenses/by/4.0/)",
      "source": "https://sketchfab.com/3d-models/disney-infinity-mike-wazowski-3ccf8fe3f49b439593747abbc88acb2b",
      "title": "Disney Infinity Mike Wazowski"
    },
    "generator": "Sketchfab-12.67.0",
    "version": "2.0"
  },
  "bufferViews": [
    {
      "buffer": 0,
      "byteLength": 82692,
      "name": "floatBufferViews",
      "target": 34963
    },
    {
      "buffer": 0,
      "byteLength": 38768,
      "byteOffset": 82692,
      "byteStride": 8,
      "name": "floatBufferViews",
      "target": 34962
    },
    {
      "buffer": 0,
      "byteLength": 116304,
      "byteOffset": 121460,
      "byteStride": 12,
      "name": "floatBufferViews",
      "target": 34962
    }
  ],
  "buffers": [
    {
      "byteLength": 237764,
      "uri": "scene.bin"
    }
  ],
  "images": [
    {
      "uri": "textures/M.U_Mike_Body_baseColor.png"
    },
    {
      "uri": "textures/M.U_Mike_Body_emissive.png"
    },
    {
      "uri": "textures/M.U_Mike_Eye_baseColor.png"
    },
    {
      "uri": "textures/M.U_Mike_Eye_emissive.png"
    }
  ],
  "materials": [
    {
      "doubleSided": true,
      "emissiveTexture": {
        "index": 1
      },
      "name": "M.U_Mike_Body",
      "pbrMetallicRoughness": {
        "baseColorTexture": {
          "index": 0
        },
        "metallicFactor": 0.0,
        "roughnessFactor": 0.9225739746329382
      }
    },
    {
      "doubleSided": true,
      "emissiveTexture": {
        "index": 3
      },
      "name": "M.U_Mike_Eye",
      "pbrMetallicRoughness": {
        "baseColorTexture": {
          "index": 2
        },
        "metallicFactor": 0.0,
        "roughnessFactor": 0.9225739746329382
      }
    },
    {
      "doubleSided": true,
      "emissiveTexture": {
        "index": 3
      },
      "name": "M.U_Mike_Eye_LRG",
      "pbrMetallicRoughness": {
        "baseColorTexture": {
          "index": 2
        },
        "metallicFactor": 0.0,
        "roughnessFactor": 0.9225739746329382
      }
    }
  ],
  "meshes": [
    {
      "name": "Object_0",
      "primitives": [
        {
          "attributes": {
            "NORMAL": 1,
            "POSITION": 0,
            "TEXCOORD_0": 2
          },
          "indices": 3,
          "material": 0,
          "mode": 4
        }
      ]
    },
    {
      "name": "Object_1",
      "primitives": [
        {
          "attributes": {
            "NORMAL": 5,
            "POSITION": 4,
            "TEXCOORD_0": 6
          },
          "indices": 7,
          "material": 1,
          "mode": 4
        }
      ]
    },
    {
      "name": "Object_2",
      "primitives": [
        {
          "attributes": {
            "NORMAL": 9,
            "POSITION": 8,
            "TEXCOORD_0": 10
          },
          "indices": 11,
          "material": 2,
          "mode": 4
        }
      ]
    }
  ],
  "nodes": [
    {
      "children": [
        1
      ],
      "matrix": [
        1.0,
        0.0,
        0.0,
        0.0,
        0.0,
        2.220446049250313e-16,
        -1.0,
        0.0,
        0.0,
        1.0,
        2.220446049250313e-16,
        0.0,
        0.0,
        0.0,
        0.0,
        1.0
      ],
      "name": "Sketchfab_model"
    },
    {
      "children": [
        2,
        3,
        4
      ],
      "name": "mike.obj.cleaner.materialmerger.gles"
    },
    {
      "mesh": 0,
      "name": "Object_2"
    },
    {
      "mesh": 1,
      "name": "Object_3"
    },
    {
      "mesh": 2,
      "name": "Object_4"
    }
  ],
  "samplers": [
    {
      "magFilter": 9729,
      "minFilter": 9987,
      "wrapS": 10497,
      "wrapT": 10497
    }
  ],
  "scene": 0,
  "scenes": [
    {
      "name": "Sketchfab_Scene",
      "nodes": [
        0
      ]
    }
  ],
  "textures": [
    {
      "sampler": 0,
      "source": 0
    },
    {
      "sampler": 0,
      "source": 1
    },
    {
      "sampler": 0,
      "source": 2
    },
    {
      "sampler": 0,
      "source": 3
    }
  ]
}
