{
  "accessors": [
    {
      "bufferView": 2,
      "componentType": 5126,
      "count": 9909,
      "max": [
        103.27336883544922,
        61.128318786621094,
        194.00265502929688
      ],
      "min": [
        -63.3652458190918,
        -4.602847099304199,
        -0.08399499952793121
      ],
      "type": "VEC3"
    },
    {
      "bufferView": 2,
      "byteOffset": 118908,
      "componentType": 5126,
      "count": 9909,
      "max": [
        0.9999991059303284,
        1.0,
        1.0
      ],
      "min": [
        -0.9999991059303284,
        -1.0,
        -1.0
      ],
      "type": "VEC3"
    },
    {
      "bufferView": 1,
      "componentType": 5126,
      "count": 9909,
      "max": [
        0.9819579720497131,
        0.9794470071792603
      ],
      "min": [
        0.01471100002527237,
        0.012864000163972378
      ],
      "type": "VEC2"
    },
    {
      "bufferView": 0,
      "componentType": 5125,
      "count": 48240,
      "type": "SCALAR"
    },
    {
      "bufferView": 2,
      "byteOffset": 237816,
      "componentType": 5126,
      "count": 724,
      "max": [
        11.468512535095215,
        33.967529296875,
        178.88214111328125
      ],
      "min": [
        -11.468512535095215,
        9.49702262878418,
        153.18527221679688
      ],
      "type": "VEC3"
    },
    {
      "bufferView": 2,
      "byteOffset": 246504,
      "componentType": 5126,
      "count": 724,
      "max": [
        0.9988222122192383,
        0.999788761138916,
        0.9999783635139465
      ],
      "min": [
        -0.9988222122192383,
        -0.9983375072479248,
        -0.9999841451644897
      ],
      "type": "VEC3"
    },
    {
      "bufferView": 1,
      "byteOffset": 79272,
      "componentType": 5126,
      "count": 724,
      "max": [
        0.14512500166893005,
        0.2842540144920349
      ],
      "min": [
        0.04163099825382233,
        0.17358200252056122
      ],
      "type": "VEC2"
    },
    {
      "bufferView": 0,
      "byteOffset": 192960,
      "componentType": 5125,
      "count": 4332,
      "type": "SCALAR"
    }
  ],
  "asset": {
    "extras": {
      "author": "KevBot (https://sketchfab.com/boyle.kj)",
      "license": "CC-BY-4.0 (http://creativecommons.org/licenses/by/4.0/)",
      "source": "https://sketchfab.com/3d-models/jango-fett-disney-infinity-9bd2348a62214e6ab7b586c938a52240",
      "title": "Jango Fett Disney Infinity"
    },
    "generator": "Sketchfab-15.14.0",
    "version": "2.0"
  },
  "bufferViews": [
    {
      "buffer": 0,
      "byteLength": 210288,
      "name": "floatBufferViews",
      "target": 34963
    },
    {
      "buffer": 0,
      "byteLength": 85064,
      "byteOffset": 210288,
      "byteStride": 8,
      "name": "floatBufferViews",
      "target": 34962
    },
    {
      "buffer": 0,
      "byteLength": 255192,
      "byteOffset": 295352,
      "byteStride": 12,
      "name": "floatBufferViews",
      "target": 34962
    }
  ],
  "buffers": [
    {
      "byteLength": 550544,
      "uri": "scene.bin"
    }
  ],
  "extensionsUsed": [
    "KHR_materials_specular"
  ],
  "images": [
    {
      "uri": "textures/lambert2SG_baseColor.jpeg"
    },
    {
      "uri": "textures/lambert2SG_metallicRoughness.png"
    }
  ],
  "materials": [
    {
      "doubleSided": true,
      "extensions": {
        "KHR_materials_specular": {
          "specularColorFactor": [
            1.0,
            1.0,
            1.0
          ],
          "specularFactor": 0.40772728197502367
        }
      },
      "name": "lambert2SG",
      "pbrMetallicRoughness": {
        "baseColorTexture": {
          "index": 0
        },
        "metallicRoughnessTexture": {
          "index": 1
        }
      }
    }
  ],
  "meshes": [
    {
      "name": "Object_0",
      "primitives": [
        {
          "attributes": {
            "NORMAL": 1,
            "POSITION": 0,
            "TEXCOORD_0": 2
          },
          "indices": 3,
          "material": 0,
          "mode": 4
        }
      ]
    },
    {
      "name": "Object_1",
      "primitives": [
        {
          "attributes": {
            "NORMAL": 5,
            "POSITION": 4,
            "TEXCOORD_0": 6
          },
          "indices": 7,
          "material": 0,
          "mode": 4
        }
      ]
    }
  ],
  "nodes": [
    {
      "children": [
        1
      ],
      "matrix": [
        1.0,
        0.0,
        0.0,
        0.0,
        0.0,
        2.220446049250313e-16,
        -1.0,
        0.0,
        0.0,
        1.0,
        2.220446049250313e-16,
        0.0,
        0.0,
        0.0,
        0.0,
        1.0
      ],
      "name": "Sketchfab_model"
    },
    {
      "children": [
        2,
        3
      ],
      "name": "JangoFettExport.obj.cleaner.materialmerger.gles"
    },
    {
      "mesh": 0,
      "name": "Object_2"
    },
    {
      "mesh": 1,
      "name": "Object_3"
    }
  ],
  "samplers": [
    {
      "magFilter": 9729,
      "minFilter": 9987,
      "wrapS": 10497,
      "wrapT": 10497
    }
  ],
  "scene": 0,
  "scenes": [
    {
      "name": "Sketchfab_Scene",
      "nodes": [
        0
      ]
    }
  ],
  "textures": [
    {
      "sampler": 0,
      "source": 0
    },
    {
      "sampler": 0,
      "source": 1
    }
  ]
}
