{
  "accessors": [
    {
      "bufferView": 3,
      "componentType": 5126,
      "count": 2892,
      "max": [
        254.46820068359375,
        1588.2440185546875,
        502.81658935546875
      ],
      "min": [
        -254.46780395507813,
        -1.5552740097045898,
        -406.2832946777344
      ],
      "type": "VEC3"
    },
    {
      "bufferView": 3,
      "byteOffset": 34704,
      "componentType": 5126,
      "count": 2892,
      "max": [
        1.0,
        0.9999257326126099,
        0.9997017979621887
      ],
      "min": [
        -1.0,
        -1.0,
        -0.9999251961708069
      ],
      "type": "VEC3"
    },
    {
      "bufferView": 2,
      "componentType": 5126,
      "count": 2892,
      "max": [
        0.9884529113769531,
        0.9917725920677185
      ],
      "min": [
        0.00665496988222003,
        0.009223222732543945
      ],
      "type": "VEC2"
    },
    {
      "bufferView": 1,
      "componentType": 5125,
      "count": 12189,
      "type": "SCALAR"
    },
    {
      "bufferView": 5,
      "componentType": 5126,
      "count": 50,
      "max": [
        1.0,
        0.9936334490776062,
        1.0000003576278687,
        0.0,
        0.9999961256980896,
        1.0,
        0.9708082675933838,
        0.0,
        0.9997382164001465,
        0.9999961256980896,
        1.0,
        0.0,
        439.2586669921875,
        1408.487060546875,
        1365.9039306640625,
        1.0
      ],
      "min": [
        -1.0,
        -0.9936327338218689,
        -0.9879677891731262,
        0.0,
        -0.9999996423721313,
        -0.9997382164001465,
        -0.970806360244751,
        0.0,
        -0.9668803215026855,
        -0.9787425994873047,
        -0.9583578705787659,
        0.0,
        -1345.5,
        -1500.1590576171875,
        -1365.9039306640625,
        1.0
      ],
      "type": "MAT4"
    },
    {
      "bufferView": 0,
      "componentType": 5123,
      "count": 2892,
      "type": "VEC4"
    },
    {
      "bufferView": 4,
      "componentType": 5126,
      "count": 2892,
      "max": [
        1.0,
        0.5,
        0.2946428954601288,
        0.0
      ],
      "min": [
        0.3928571939468384,
        0.0,
        0.0,
        0.0
      ],
      "type": "VEC4"
    }
  ],
  "asset": {
    "extras": {
      "author": "30thomasgorton (https://sketchfab.com/30thomasgorton)",
      "license": "CC-BY-4.0 (http://creativecommons.org/licenses/by/4.0/)",
      "source": "https://sketchfab.com/3d-models/disney-magic-kingdoms-kevin-b73519bde656472aa6872c32fae2893c",
      "title": "Disney Magic Kingdoms Kevin"
    },
    "generator": "Sketchfab-14.15.0",
    "version": "2.0"
  },
  "bufferViews": [
    {
      "buffer": 0,
      "byteLength": 23136,
      "byteStride": 8,
      "name": "shortBufferViews",
      "target": 34962
    },
    {
      "buffer": 0,
      "byteLength": 48756,
      "byteOffset": 23136,
      "name": "floatBufferViews",
      "target": 34963
    },
    {
      "buffer": 0,
      "byteLength": 23136,
      "byteOffset": 71892,
      "byteStride": 8,
      "name": "floatBufferViews",
      "target": 34962
    },
    {
      "buffer": 0,
      "byteLength": 69408,
      "byteOffset": 95028,
      "byteStride": 12,
      "name": "floatBufferViews",
      "target": 34962
    },
    {
      "buffer": 0,
      "byteLength": 46272,
      "byteOffset": 164436,
      "byteStride": 16,
      "name": "floatBufferViews",
      "target": 34962
    },
    {
      "buffer": 0,
      "byteLength": 3200,
      "byteOffset": 210708,
      "name": "floatBufferViews"
    }
  ],
  "buffers": [
    {
      "byteLength": 213908,
      "uri": "scene.bin"
    }
  ],
  "images": [
    {
      "uri": "textures/kevin_mat_baseColor.png"
    }
  ],
  "materials": [
    {
      "doubleSided": true,
      "name": "kevin_mat",
      "pbrMetallicRoughness": {
        "baseColorTexture": {
          "index": 0
        },
        "metallicFactor": 0.0,
        "roughnessFactor": 0.9487198333588512
      }
    }
  ],
  "meshes": [
    {
      "name": "kevin_lod0_kevin_mat_0",
      "primitives": [
        {
          "attributes": {
            "JOINTS_0": 5,
            "NORMAL": 1,
            "POSITION": 0,
            "TEXCOORD_0": 2,
            "TEXCOORD_1": 2,
            "TEXCOORD_2": 2,
            "TEXCOORD_3": 2,
            "TEXCOORD_4": 2,
            "TEXCOORD_5": 2,
            "TEXCOORD_6": 2,
            "TEXCOORD_7": 2,
            "TEXCOORD_8": 2,
            "TEXCOORD_9": 2,
            "WEIGHTS_0": 6
          },
          "indices": 3,
          "material": 0,
          "mode": 4
        }
      ]
    }
  ],
  "nodes": [
    {
      "children": [
        1
      ],
      "matrix": [
        1.0,
        0.0,
        0.0,
        0.0,
        0.0,
        2.220446049250313e-16,
        -1.0,
        0.0,
        0.0,
        1.0,
        2.220446049250313e-16,
        0.0,
        0.0,
        0.0,
        0.0,
        1.0
      ],
      "name": "Sketchfab_model"
    },
    {
      "children": [
        2
      ],
      "matrix": [
        0.02539999969303608,
        0.0,
        0.0,
        0.0,
        0.0,
        0.0,
        0.02539999969303608,
        0.0,
        0.0,
        -0.02539999969303608,
        0.0,
        0.0,
        0.0,
        0.0,
        0.0,
        1.0
      ],
      "name": "kevin_costume_basic.fbx"
    },
    {
      "children": [
        3
      ],
      "name": "RootNode"
    },
    {
      "children": [
        4,
        6,
        5
      ],
      "name": "Object_3"
    },
    {
      "children": [
        7
      ],
      "name": "_rootJoint"
    },
    {
      "matrix": [
        1.0,
        0.0,
        0.0,
        0.0,
        0.0,
        6.123233995736765e-17,
        -0.9999999999999999,
        0.0,
        0.0,
        1.0000000000000002,
        6.123233995736767e-17,
        0.0,
        0.0,
        0.0,
        2.842170943040401e-14,
        1.0
      ],
      "name": "Object_5"
    },
    {
      "mesh": 0,
      "name": "Object_6",
      "skin": 0
    },
    {
      "children": [
        8
      ],
      "name": "Bip001_Pelvis_01",
      "rotation": [
        0.6532816290855408,
        0.270598828792572,
        0.6532813906669617,
        0.2705971300601959
      ],
      "scale": [
        0.3937009871006012,
        0.3937009871006012,
        0.3937009871006012
      ],
      "translation": [
        7.813380216248333e-05,
        191.50540161132813,
        -10.62720012664795
      ]
    },
    {
      "children": [
        9,
        10,
        34,
        45
      ],
      "name": "Bip001_Spine_02",
      "rotation": [
        -2.1454818579513812e-06,
        -7.1610986651649e-07,
        0.0003981740155722946,
        0.9999999403953552
      ],
      "translation": [
        -71.20565795898438,
        -118.68051147460938,
        0.001503807958215475
      ]
    },
    {
      "name": "Bip001_Tail_03",
      "rotation": [
        -1.3113913155393675e-07,
        -2.630152721394552e-06,
        0.9901490807533264,
        0.1400173157453537
      ],
      "translation": [
        -139.50721740722656,
        -12.77044677734375,
        -0.0016647890442982316
      ]
    },
    {
      "children": [
        11
      ],
      "name": "Bip001_Spine1_04",
      "rotation": [
        -5.684341886080802e-14,
        1.1368683772161603e-13,
        2.7755575615628914e-17,
        1.0
      ],
      "translation": [
        171.99468994140625,
        -0.188934326171875,
        1.7294310964643955e-05
      ]
    },
    {
      "children": [
        12,
        16,
        30
      ],
      "name": "Bip001_Neck_05",
      "rotation": [
        -1.9236333059780009e-07,
        3.2532571481169725e-07,
        -0.1480880230665207,
        0.9889742136001587
      ],
      "translation": [
        290.77642822265625,
        8.207061767578125,
        0.00010191521141678095
      ]
    },
    {
      "children": [
        13
      ],
      "name": "Bip001_R_Clavicle_06",
      "rotation": [
        0.6788163781166077,
        0.19801391661167145,
        -0.6788144707679749,
        0.19801446795463562
      ],
      "translation": [
        -75.55487060546875,
        -55.70658874511719,
        -19.45707130432129
      ]
    },
    {
      "children": [
        14
      ],
      "name": "Bip001_R_UpperArm_07",
      "rotation": [
        -0.3835126459598541,
        -0.030871061608195305,
        0.06359084695577621,
        0.9208263754844666
      ],
      "translation": [
        85.997314453125,
        -6.103515625e-05,
        6.103515625e-05
      ]
    },
    {
      "children": [
        15
      ],
      "name": "Bip001_R_Forearm_08",
      "rotation": [
        -6.863256629685566e-09,
        1.4022273120417594e-08,
        0.687514066696167,
        0.72617107629776
      ],
      "translation": [
        62.27534484863281,
        0.0,
        3.0517578125e-05
      ]
    },
    {
      "name": "Bip001_R_Hand_09",
      "rotation": [
        0.6004217863082886,
        -0.37295547127723694,
        -0.3732527196407318,
        0.6008995771408081
      ],
      "translation": [
        88.07220458984375,
        0.000152587890625,
        -1.52587890625e-05
      ]
    },
    {
      "children": [
        17
      ],
      "name": "Bip001_Neck1_010",
      "rotation": [
        -1.3572865498190367e-07,
        4.710687733222585e-07,
        -0.22540901601314545,
        0.9742643237113953
      ],
      "translation": [
        131.437255859375,
        -0.1611785888671875,
        3.7936377339065075e-05
      ]
    },
    {
      "children": [
        18
      ],
      "name": "Bip001_Neck2_011",
      "rotation": [
        1.5556805621486092e-08,
        1.1195272975328407e-07,
        -0.13763564825057983,
        0.9904829263687134
      ],
      "translation": [
        225.26470947265625,
        -0.1190185546875,
        0.00012890389189124107
      ]
    },
    {
      "children": [
        19,
        22,
        23,
        24,
        25,
        26,
        27,
        28
      ],
      "name": "Bip001_Head_012",
      "rotation": [
        8.551619856689285e-08,
        -7.101251640051487e-07,
        0.11956034600734711,
        0.9928269386291504
      ],
      "translation": [
        168.027587890625,
        1.2054443359375,
        5.778367631137371e-05
      ]
    },
    {
      "children": [
        20
      ],
      "name": "Bip001_Jaw_013",
      "rotation": [
        -1.4110878510109615e-07,
        -2.193578211517888e-06,
        0.7159126996994019,
        0.6981897950172424
      ],
      "translation": [
        32.3568115234375,
        -23.206161499023438,
        -0.003706606337800622
      ]
    },
    {
      "children": [
        21
      ],
      "name": "Bip001_Tongue_014",
      "rotation": [
        -1.8859409465221688e-06,
        -1.2256753052497515e-06,
        0.017705215141177177,
        0.9998433589935303
      ],
      "translation": [
        12.781417846679688,
        -17.9525146484375,
        6.594881415367126e-05
      ]
    },
    {
      "name": "Bip001_Tongue02_015",
      "rotation": [
        -7.160998620747705e-07,
        9.618531038313449e-08,
        0.008510254323482513,
        0.9999638795852661
      ],
      "translation": [
        118.12200927734375,
        -0.084716796875,
        -2.2036023437976837e-05
      ]
    },
    {
      "name": "Bip001_Eyelid_Top_R_016",
      "rotation": [
        0.9457170367240906,
        0.08325552940368652,
        -0.21888399124145508,
        -0.22533883154392242
      ],
      "translation": [
        75.1220703125,
        -5.5190887451171875,
        -8.843178749084473
      ]
    },
    {
      "name": "Bip001_Eyelid_Top_L_017",
      "rotation": [
        0.9457169771194458,
        0.08325406163930893,
        0.2188849002122879,
        0.22533874213695526
      ],
      "translation": [
        75.122314453125,
        -5.519134521484375,
        8.84337329864502
      ]
    },
    {
      "name": "Bip001_Eyelid_Bottom_R_018",
      "rotation": [
        -0.5494382977485657,
        -0.213607057929039,
        0.8002501726150513,
        0.1099511981010437
      ],
      "translation": [
        75.1220703125,
        -5.5191497802734375,
        -8.843144416809082
      ]
    },
    {
      "name": "Bip001_Eyelid_Bottom_L_019",
      "rotation": [
        0.5494384765625,
        0.21360157430171967,
        0.8002514243125916,
        0.10995285212993622
      ],
      "translation": [
        75.1219482421875,
        -5.519195556640625,
        8.843299865722656
      ]
    },
    {
      "name": "Bip001_Eye_R_020",
      "rotation": [
        0.7663164138793945,
        0.1702149212360382,
        -0.5958477258682251,
        -0.16956280171871185
      ],
      "translation": [
        75.1220703125,
        -5.5191497802734375,
        -8.843185424804688
      ]
    },
    {
      "name": "Bip001_Eye_L_021",
      "rotation": [
        0.7663164138793945,
        0.17021021246910095,
        0.595848560333252,
        0.16956453025341034
      ],
      "translation": [
        75.12255859375,
        -5.519134521484375,
        8.843341827392578
      ]
    },
    {
      "children": [
        29
      ],
      "name": "Bip001_Crest1_022",
      "rotation": [
        1.7807325036756083e-07,
        8.998151201922155e-07,
        -0.44243916869163513,
        0.8967984914779663
      ],
      "translation": [
        124.2979736328125,
        -22.386001586914063,
        0.00011299620382487774
      ]
    },
    {
      "name": "Bip001_Crest2_023",
      "rotation": [
        2.982817477459321e-07,
        3.6314037288320833e-07,
        -0.19564594328403473,
        0.9806746244430542
      ],
      "translation": [
        85.9512939453125,
        -0.110595703125,
        4.7465553507208824e-05
      ]
    },
    {
      "children": [
        31
      ],
      "name": "Bip001_L_Clavicle_024",
      "rotation": [
        0.6873111128807068,
        0.1661456674337387,
        0.6873096227645874,
        -0.16614603996276855
      ],
      "translation": [
        -75.5548095703125,
        -55.70677185058594,
        19.456605911254883
      ]
    },
    {
      "children": [
        32
      ],
      "name": "Bip001_L_UpperArm_025",
      "rotation": [
        0.3835126459598541,
        0.030870983377099037,
        0.06359118968248367,
        0.9208264946937561
      ],
      "translation": [
        85.99738311767578,
        0.00018310546875,
        6.103515625e-05
      ]
    },
    {
      "children": [
        33
      ],
      "name": "Bip001_L_Forearm_026",
      "rotation": [
        5.685931725452065e-08,
        4.3572338626063356e-08,
        0.6875137686729431,
        0.7261713147163391
      ],
      "translation": [
        62.27531433105469,
        6.103515625e-05,
        -3.0517578125e-05
      ]
    },
    {
      "name": "Bip001_L_Hand_027",
      "rotation": [
        -0.6004214882850647,
        0.37295523285865784,
        -0.3732523024082184,
        0.6009002923965454
      ],
      "translation": [
        88.07196044921875,
        -6.103515625e-05,
        -2.842170943040401e-14
      ]
    },
    {
      "children": [
        35
      ],
      "name": "Bip001_R_Thigh_028",
      "rotation": [
        0.010129962116479874,
        -0.046813949942588806,
        0.9980328679084778,
        0.04045095294713974
      ],
      "translation": [
        71.29998779296875,
        118.62405395507813,
        -113.77931213378906
      ]
    },
    {
      "children": [
        36
      ],
      "name": "Bip001_R_Calf_00",
      "rotation": [
        6.895295712183724e-08,
        1.0624598445474476e-07,
        -0.5443947315216064,
        0.8388291597366333
      ],
      "translation": [
        193.6464385986328,
        3.0517578125e-05,
        -5.340576171875e-05
      ]
    },
    {
      "children": [
        37,
        39,
        41,
        43
      ],
      "name": "Bip001_R_Foot_029",
      "rotation": [
        0.9677766561508179,
        0.2156556397676468,
        -0.06548751890659332,
        -0.11230490356683731
      ],
      "translation": [
        285.53216552734375,
        -4.9591064453125e-05,
        -0.0001068115234375
      ]
    },
    {
      "children": [
        38
      ],
      "name": "Bip001_R_Toe3_030",
      "rotation": [
        0.893509030342102,
        -0.44904521107673645,
        2.76589787517878e-07,
        -7.090218190342057e-08
      ],
      "translation": [
        48.650230407714844,
        -14.701170921325684,
        -2.6014633178710938
      ]
    },
    {
      "name": "Bip001_R_Toe31_031",
      "rotation": [
        -1.160913143394282e-09,
        -4.8896708904067054e-09,
        1.4901161193847656e-08,
        1.0
      ],
      "translation": [
        23.546361923217773,
        7.62939453125e-06,
        1.52587890625e-05
      ]
    },
    {
      "children": [
        40
      ],
      "name": "Bip001_R_Toe2_032",
      "rotation": [
        -0.22223161160945892,
        0.22223129868507385,
        0.6712773442268372,
        0.6712772250175476
      ],
      "translation": [
        82.30277252197266,
        38.125030517578125,
        -35.55618667602539
      ]
    },
    {
      "name": "Bip001_R_Toe21_033",
      "rotation": [
        -5.12857432389454e-22,
        1.4901351264029472e-08,
        2.8421712818535796e-14,
        1.0
      ],
      "translation": [
        44.675140380859375,
        8.046627044677734e-06,
        7.62939453125e-06
      ]
    },
    {
      "children": [
        42
      ],
      "name": "Bip001_R_Toe1_034",
      "rotation": [
        -0.013606644235551357,
        0.013606312684714794,
        0.7069758176803589,
        0.7069759368896484
      ],
      "translation": [
        82.30281829833984,
        55.33429718017578,
        -5.277610778808594
      ]
    },
    {
      "name": "Bip001_R_Toe11_035",
      "rotation": [
        -1.1368685127414319e-13,
        -7.450467798264526e-09,
        1.4210853868169056e-14,
        1.0
      ],
      "translation": [
        59.14876937866211,
        -4.291534423828125e-06,
        -7.62939453125e-06
      ]
    },
    {
      "children": [
        44
      ],
      "name": "Bip001_R_Toe0_036",
      "rotation": [
        0.18301239609718323,
        -0.18301284313201904,
        0.6830124855041504,
        0.6830129623413086
      ],
      "translation": [
        82.30280303955078,
        40.579856872558594,
        26.69287872314453
      ]
    },
    {
      "name": "Bip001_R_Toe01_037",
      "rotation": [
        -1.1368683772161603e-13,
        5.867528685143952e-14,
        -1.776356331180482e-14,
        1.0
      ],
      "translation": [
        39.58147430419922,
        -9.268522262573242e-06,
        1.52587890625e-05
      ]
    },
    {
      "children": [
        46
      ],
      "name": "Bip001_L_Thigh_038",
      "rotation": [
        -0.010129991918802261,
        0.04681132361292839,
        0.9980329871177673,
        0.04045096039772034
      ],
      "translation": [
        71.30001831054688,
        118.6234130859375,
        113.77701568603516
      ]
    },
    {
      "children": [
        47
      ],
      "name": "Bip001_L_Calf_039",
      "rotation": [
        6.582808964594733e-08,
        1.0827402974200595e-07,
        -0.5443947315216064,
        0.8388291597366333
      ],
      "translation": [
        193.64625549316406,
        9.1552734375e-05,
        -1.52587890625e-05
      ]
    },
    {
      "children": [
        48,
        50,
        52,
        54
      ],
      "name": "Bip001_L_Foot_040",
      "rotation": [
        0.9677766561508179,
        0.21565575897693634,
        0.06548719853162766,
        0.11230497062206268
      ],
      "translation": [
        285.5324401855469,
        3.4332275390625e-05,
        -9.918212890625e-05
      ]
    },
    {
      "children": [
        49
      ],
      "name": "Bip001_L_Toe3_041",
      "rotation": [
        0.8935090899467468,
        -0.4490453600883484,
        4.566797784377741e-08,
        6.634596871890608e-08
      ],
      "translation": [
        48.6502685546875,
        -14.70118236541748,
        2.6014862060546875
      ]
    },
    {
      "name": "Bip001_L_Toe31_042",
      "rotation": [
        -6.946549446773531e-10,
        -4.154301791459147e-09,
        -2.9802322387695313e-08,
        1.0
      ],
      "translation": [
        23.546363830566406,
        -1.1444091796875e-05,
        -7.62939453125e-06
      ]
    },
    {
      "children": [
        51
      ],
      "name": "Bip001_L_Toe2_043",
      "rotation": [
        0.22223122417926788,
        -0.22223159670829773,
        0.6712771058082581,
        0.6712774634361267
      ],
      "translation": [
        82.30284881591797,
        38.125038146972656,
        35.55625915527344
      ]
    },
    {
      "name": "Bip001_L_Toe21_044",
      "rotation": [
        -5.684341886080802e-14,
        -1.4900890299429648e-08,
        -1.4210856409267898e-14,
        1.0
      ],
      "translation": [
        44.67517852783203,
        -5.841255187988281e-06,
        -7.62939453125e-06
      ]
    },
    {
      "children": [
        53
      ],
      "name": "Bip001_L_Toe1_045",
      "rotation": [
        0.013606353662908077,
        -0.013606693595647812,
        0.706976056098938,
        0.7069757580757141
      ],
      "translation": [
        82.3028564453125,
        55.33430099487305,
        5.277679443359375
      ]
    },
    {
      "name": "Bip001_L_Toe11_046",
      "rotation": [
        -2.2127293431604814e-22,
        -7.4504313829493185e-09,
        1.4210856409267898e-14,
        1.0
      ],
      "translation": [
        59.148765563964844,
        6.288290023803711e-06,
        2.288818359375e-05
      ]
    },
    {
      "children": [
        55
      ],
      "name": "Bip001_L_Toe0_047",
      "rotation": [
        -0.18301276862621307,
        0.18301241099834442,
        0.683012843132019,
        0.6830126047134399
      ],
      "translation": [
        82.30281066894531,
        40.579830169677734,
        -26.692825317382813
      ]
    },
    {
      "name": "Bip001_L_Toe01_048",
      "rotation": [
        -5.684341886080802e-14,
        3.8741232444294837e-13,
        -4.960881491215151e-23,
        1.0
      ],
      "translation": [
        39.581451416015625,
        1.1771917343139648e-05,
        1.4210854715202004e-14
      ]
    }
  ],
  "samplers": [
    {
      "magFilter": 9729,
      "minFilter": 9987,
      "wrapS": 10497,
      "wrapT": 10497
    }
  ],
  "scene": 0,
  "scenes": [
    {
      "name": "Sketchfab_Scene",
      "nodes": [
        0
      ]
    }
  ],
  "skins": [
    {
      "inverseBindMatrices": 4,
      "joints": [
        4,
        7,
        8,
        9,
        10,
        11,
        12,
        13,
        14,
        15,
        16,
        17,
        18,
        19,
        20,
        21,
        22,
        23,
        24,
        25,
        26,
        27,
        28,
        29,
        30,
        31,
        32,
        33,
        34,
        35,
        36,
        37,
        38,
        39,
        40,
        41,
        42,
        43,
        44,
        45,
        46,
        47,
        48,
        49,
        50,
        51,
        52,
        53,
        54,
        55
      ],
      "skeleton": 4
    }
  ],
  "textures": [
    {
      "sampler": 0,
      "source": 0
    }
  ]
}
