{
  "accessors": [
    {
      "bufferView": 2,
      "componentType": 5126,
      "count": 1803,
      "max": [
        78.65260314941406,
        112.82150268554688,
        74.82499694824219
      ],
      "min": [
        -78.65260314941406,
        -147.03489685058594,
        -1.4205000400543213
      ],
      "type": "VEC3"
    },
    {
      "bufferView": 2,
      "byteOffset": 21636,
      "componentType": 5126,
      "count": 1803,
      "max": [
        1.0,
        1.0,
        1.0
      ],
      "min": [
        -1.0,
        -1.0,
        -1.0
      ],
      "type": "VEC3"
    },
    {
      "bufferView": 1,
      "componentType": 5126,
      "count": 1803,
      "max": [
        0.9916999936103821,
        0.6276999711990356
      ],
      "min": [
        -0.9994999766349792,
        -0.9970999956130981
      ],
      "type": "VEC2"
    },
    {
      "bufferView": 0,
      "componentType": 5125,
      "count": 7452,
      "type": "SCALAR"
    },
    {
      "bufferView": 2,
      "byteOffset": 43272,
      "componentType": 5126,
      "count": 46,
      "max": [
        52.57170104980469,
        126.44940185546875,
        85.91169738769531
      ],
      "min": [
        -52.57170104980469,
        125.32360076904297,
        69.92870330810547
      ],
      "type": "VEC3"
    },
    {
      "bufferView": 2,
      "byteOffset": 43824,
      "componentType": 5126,
      "count": 46,
      "max": [
        0.28861376643180847,
        1.0,
        0.2746032178401947
      ],
      "min": [
        -0.28861376643180847,
        0.9532418847084045,
        -0.30209314823150635
      ],
      "type": "VEC3"
    },
    {
      "bufferView": 1,
      "byteOffset": 14424,
      "componentType": 5126,
      "count": 46,
      "max": [
        -1.0283000469207764,
        -0.0038999998942017555
      ],
      "min": [
        -1.9716999530792236,
        -0.9951000213623047
      ],
      "type": "VEC2"
    },
    {
      "bufferView": 0,
      "byteOffset": 29808,
      "componentType": 5125,
      "count": 180,
      "type": "SCALAR"
    },
    {
      "bufferView": 2,
      "byteOffset": 44376,
      "componentType": 5126,
      "count": 49,
      "max": [
        45.715999603271484,
        -32.9630012512207,
        190.7169952392578
      ],
      "min": [
        -45.71799850463867,
        -54.411800384521484,
        133.20599365234375
      ],
      "type": "VEC3"
    },
    {
      "bufferView": 2,
      "byteOffset": 44964,
      "componentType": 5126,
      "count": 49,
      "max": [
        0.4246836006641388,
        -0.8665902614593506,
        0.30969834327697754
      ],
      "min": [
        -0.4248952269554138,
        -0.9551844000816345,
        0.2587900161743164
      ],
      "type": "VEC3"
    },
    {
      "bufferView": 1,
      "byteOffset": 14792,
      "componentType": 5126,
      "count": 49,
      "max": [
        1.0,
        0.8246999979019165
      ],
      "min": [
        0.0,
        0.16599999368190765
      ],
      "type": "VEC2"
    },
    {
      "bufferView": 0,
      "byteOffset": 30528,
      "componentType": 5125,
      "count": 192,
      "type": "SCALAR"
    },
    {
      "bufferView": 2,
      "byteOffset": 45552,
      "componentType": 5126,
      "count": 31,
      "max": [
        -43.45399856567383,
        -139.43600463867188,
        121.24299621582031
      ],
      "min": [
        -65.64399719238281,
        -143.97520446777344,
        98.6780014038086
      ],
      "type": "VEC3"
    },
    {
      "bufferView": 2,
      "byteOffset": 45924,
      "componentType": 5126,
      "count": 31,
      "max": [
        0.4090961515903473,
        -0.838870108127594,
        0.3413901925086975
      ],
      "min": [
        -0.39219021797180176,
        -0.9986652731895447,
        -0.48608267307281494
      ],
      "type": "VEC3"
    },
    {
      "bufferView": 1,
      "byteOffset": 15184,
      "componentType": 5126,
      "count": 31,
      "max": [
        -0.041200000792741776,
        0.9941999912261963
      ],
      "min": [
        -0.9110999703407288,
        0.03759999945759773
      ],
      "type": "VEC2"
    },
    {
      "bufferView": 0,
      "byteOffset": 31296,
      "componentType": 5125,
      "count": 96,
      "type": "SCALAR"
    },
    {
      "bufferView": 2,
      "byteOffset": 46296,
      "componentType": 5126,
      "count": 2205,
      "max": [
        74.3550033569336,
        135.3585968017578,
        204.2550048828125
      ],
      "min": [
        -74.43800354003906,
        -149.99600219726563,
        18.28499984741211
      ],
      "type": "VEC3"
    },
    {
      "bufferView": 2,
      "byteOffset": 72756,
      "componentType": 5126,
      "count": 2205,
      "max": [
        1.0,
        1.0,
        1.0
      ],
      "min": [
        -1.0,
        -1.0,
        -1.0
      ],
      "type": "VEC3"
    },
    {
      "bufferView": 1,
      "byteOffset": 15432,
      "componentType": 5126,
      "count": 2205,
      "max": [
        0.9345999956130981,
        0.0
      ],
      "min": [
        0.007199999876320362,
        -0.9970999956130981
      ],
      "type": "VEC2"
    },
    {
      "bufferView": 0,
      "byteOffset": 31680,
      "componentType": 5125,
      "count": 9999,
      "type": "SCALAR"
    },
    {
      "bufferView": 2,
      "byteOffset": 99216,
      "componentType": 5126,
      "count": 3094,
      "max": [
        85.22090148925781,
        148.9918975830078,
        208.6851043701172
      ],
      "min": [
        -84.1708984375,
        -146.6259002685547,
        16.16860008239746
      ],
      "type": "VEC3"
    },
    {
      "bufferView": 2,
      "byteOffset": 136344,
      "componentType": 5126,
      "count": 3094,
      "max": [
        1.0,
        1.0,
        1.0
      ],
      "min": [
        -1.0,
        -1.0,
        -1.0
      ],
      "type": "VEC3"
    },
    {
      "bufferView": 1,
      "byteOffset": 33072,
      "componentType": 5126,
      "count": 3094,
      "max": [
        0.9955999851226807,
        0.9961000084877014
      ],
      "min": [
        0.00039999998989515007,
        -0.9980000257492065
      ],
      "type": "VEC2"
    },
    {
      "bufferView": 0,
      "byteOffset": 71676,
      "componentType": 5125,
      "count": 9999,
      "type": "SCALAR"
    },
    {
      "bufferView": 2,
      "byteOffset": 173472,
      "componentType": 5126,
      "count": 733,
      "max": [
        85.22090148925781,
        129.03460693359375,
        188.13819885253906
      ],
      "min": [
        -74.84480285644531,
        -126.56620025634766,
        29.858600616455078
      ],
      "type": "VEC3"
    },
    {
      "bufferView": 2,
      "byteOffset": 182268,
      "componentType": 5126,
      "count": 733,
      "max": [
        1.0,
        0.999995231628418,
        0.9999719858169556
      ],
      "min": [
        -1.0,
        -1.0,
        -0.9999955892562866
      ],
      "type": "VEC3"
    },
    {
      "bufferView": 1,
      "byteOffset": 57824,
      "componentType": 5126,
      "count": 733,
      "max": [
        0.9926999807357788,
        -0.0020000000949949026
      ],
      "min": [
        0.00039999998989515007,
        -0.9970999956130981
      ],
      "type": "VEC2"
    },
    {
      "bufferView": 0,
      "byteOffset": 111672,
      "componentType": 5125,
      "count": 2580,
      "type": "SCALAR"
    }
  ],
  "asset": {
    "extras": {
      "author": "Neut2000 (https://sketchfab.com/Neut2000)",
      "license": "CC-BY-4.0 (http://creativecommons.org/licenses/by/4.0/)",
      "source": "https://sketchfab.com/3d-models/disney-infinity-mater-ac9d4e4f44f34775ad46878ba8fbfd86",
      "title": "Disney Infinity Mater"
    },
    "generator": "Sketchfab-12.67.0",
    "version": "2.0"
  },
  "bufferViews": [
    {
      "buffer": 0,
      "byteLength": 121992,
      "name": "floatBufferViews",
      "target": 34963
    },
    {
      "buffer": 0,
      "byteLength": 63688,
      "byteOffset": 121992,
      "byteStride": 8,
      "name": "floatBufferViews",
      "target": 34962
    },
    {
      "buffer": 0,
      "byteLength": 191064,
      "byteOffset": 185680,
      "byteStride": 12,
      "name": "floatBufferViews",
      "target": 34962
    }
  ],
  "buffers": [
    {
      "byteLength": 376744,
      "uri": "scene.bin"
    }
  ],
  "images": [
    {
      "uri": "textures/Material__64_baseColor.png"
    },
    {
      "uri": "textures/Material__65_baseColor.png"
    },
    {
      "uri": "textures/Material__66_baseColor.png"
    },
    {
      "uri": "textures/Material__67_baseColor.png"
    },
    {
      "uri": "textures/Material__68_baseColor.png"
    }
  ],
  "materials": [
    {
      "doubleSided": true,
      "emissiveTexture": {
        "index": 0
      },
      "name": "Material__64",
      "pbrMetallicRoughness": {
        "baseColorTexture": {
          "index": 0
        },
        "metallicFactor": 0.0
      }
    },
    {
      "doubleSided": true,
      "emissiveTexture": {
        "index": 1
      },
      "name": "Material__65",
      "pbrMetallicRoughness": {
        "baseColorTexture": {
          "index": 1
        },
        "metallicFactor": 0.0
      }
    },
    {
      "doubleSided": true,
      "emissiveTexture": {
        "index": 2
      },
      "name": "Material__66",
      "pbrMetallicRoughness": {
        "baseColorTexture": {
          "index": 2
        },
        "metallicFactor": 0.0
      }
    },
    {
      "doubleSided": true,
      "emissiveTexture": {
        "index": 3
      },
      "name": "Material__67",
      "pbrMetallicRoughness": {
        "baseColorTexture": {
          "index": 3
        },
        "metallicFactor": 0.0
      }
    },
    {
      "doubleSided": true,
      "emissiveTexture": {
        "index": 4
      },
      "name": "Material__68",
      "pbrMetallicRoughness": {
        "baseColorTexture": {
          "index": 4
        },
        "metallicFactor": 0.0
      }
    }
  ],
  "meshes": [
    {
      "name": "Object_0",
      "primitives": [
        {
          "attributes": {
            "NORMAL": 1,
            "POSITION": 0,
            "TEXCOORD_0": 2
          },
          "indices": 3,
          "material": 0,
          "mode": 4
        }
      ]
    },
    {
      "name": "Object_1",
      "primitives": [
        {
          "attributes": {
            "NORMAL": 5,
            "POSITION": 4,
            "TEXCOORD_0": 6
          },
          "indices": 7,
          "material": 1,
          "mode": 4
        }
      ]
    },
    {
      "name": "Object_2",
      "primitives": [
        {
          "attributes": {
            "NORMAL": 9,
            "POSITION": 8,
            "TEXCOORD_0": 10
          },
          "indices": 11,
          "material": 3,
          "mode": 4
        }
      ]
    },
    {
      "name": "Object_3",
      "primitives": [
        {
          "attributes": {
            "NORMAL": 13,
            "POSITION": 12,
            "TEXCOORD_0": 14
          },
          "indices": 15,
          "material": 2,
          "mode": 4
        }
      ]
    },
    {
      "name": "Object_4",
      "primitives": [
        {
          "attributes": {
            "NORMAL": 17,
            "POSITION": 16,
            "TEXCOORD_0": 18
          },
          "indices": 19,
          "material": 4,
          "mode": 4
        }
      ]
    },
    {
      "name": "Object_5",
      "primitives": [
        {
          "attributes": {
            "NORMAL": 21,
            "POSITION": 20,
            "TEXCOORD_0": 22
          },
          "indices": 23,
          "material": 4,
          "mode": 4
        }
      ]
    },
    {
      "name": "Object_6",
      "primitives": [
        {
          "attributes": {
            "NORMAL": 25,
            "POSITION": 24,
            "TEXCOORD_0": 26
          },
          "indices": 27,
          "material": 4,
          "mode": 4
        }
      ]
    }
  ],
  "nodes": [
    {
      "children": [
        1
      ],
      "matrix": [
        1.0,
        0.0,
        0.0,
        0.0,
        0.0,
        2.220446049250313e-16,
        -1.0,
        0.0,
        0.0,
        1.0,
        2.220446049250313e-16,
        0.0,
        0.0,
        0.0,
        0.0,
        1.0
      ],
      "name": "Sketchfab_model"
    },
    {
      "children": [
        2,
        3,
        4,
        5,
        6,
        7,
        8
      ],
      "name": "Mate.obj.cleaner.materialmerger.gles"
    },
    {
      "mesh": 0,
      "name": "Object_2"
    },
    {
      "mesh": 1,
      "name": "Object_3"
    },
    {
      "mesh": 2,
      "name": "Object_4"
    },
    {
      "mesh": 3,
      "name": "Object_5"
    },
    {
      "mesh": 4,
      "name": "Object_6"
    },
    {
      "mesh": 5,
      "name": "Object_7"
    },
    {
      "mesh": 6,
      "name": "Object_8"
    }
  ],
  "samplers": [
    {
      "magFilter": 9729,
      "minFilter": 9987,
      "wrapS": 10497,
      "wrapT": 10497
    }
  ],
  "scene": 0,
  "scenes": [
    {
      "name": "Sketchfab_Scene",
      "nodes": [
        0
      ]
    }
  ],
  "textures": [
    {
      "sampler": 0,
      "source": 0
    },
    {
      "sampler": 0,
      "source": 1
    },
    {
      "sampler": 0,
      "source": 2
    },
    {
      "sampler": 0,
      "source": 3
    },
    {
      "sampler": 0,
      "source": 4
    }
  ]
}
