{
  "accessors": [
    {
      "bufferView": 2,
      "componentType": 5126,
      "count": 1772,
      "max": [
        102.92109680175781,
        138.8972930908203,
        86.6946029663086
      ],
      "min": [
        -102.92109680175781,
        -138.89520263671875,
        -0.4343000054359436
      ],
      "type": "VEC3"
    },
    {
      "bufferView": 2,
      "byteOffset": 21264,
      "componentType": 5126,
      "count": 1772,
      "max": [
        1.0,
        1.0,
        1.0
      ],
      "min": [
        -1.0,
        -1.0,
        -1.0
      ],
      "type": "VEC3"
    },
    {
      "bufferView": 1,
      "componentType": 5126,
      "count": 1772,
      "max": [
        2.0,
        0.9969000220298767
      ],
      "min": [
        0.0,
        0.009800000116229057
      ],
      "type": "VEC2"
    },
    {
      "bufferView": 0,
      "componentType": 5125,
      "count": 9360,
      "type": "SCALAR"
    },
    {
      "bufferView": 2,
      "byteOffset": 42528,
      "componentType": 5126,
      "count": 2249,
      "max": [
        74.70480346679688,
        148.24000549316406,
        122.3302993774414
      ],
      "min": [
        -74.70480346679688,
        -175.12530517578125,
        12.123299598693848
      ],
      "type": "VEC3"
    },
    {
      "bufferView": 2,
      "byteOffset": 69516,
      "componentType": 5126,
      "count": 2249,
      "max": [
        1.0,
        1.0,
        1.0
      ],
      "min": [
        -1.0,
        -0.9999998807907104,
        -1.0
      ],
      "type": "VEC3"
    },
    {
      "bufferView": 1,
      "byteOffset": 14176,
      "componentType": 5126,
      "count": 2249,
      "max": [
        0.9955999851226807,
        0.9947999715805054
      ],
      "min": [
        0.005499999970197678,
        0.007799999788403511
      ],
      "type": "VEC2"
    },
    {
      "bufferView": 0,
      "byteOffset": 37440,
      "componentType": 5125,
      "count": 9999,
      "type": "SCALAR"
    },
    {
      "bufferView": 2,
      "byteOffset": 96504,
      "componentType": 5126,
      "count": 72,
      "max": [
        11.498200416564941,
        148.24000549316406,
        119.85980224609375
      ],
      "min": [
        -20.13330078125,
        -163.45140075683594,
        32.426700592041016
      ],
      "type": "VEC3"
    },
    {
      "bufferView": 2,
      "byteOffset": 97368,
      "componentType": 5126,
      "count": 72,
      "max": [
        0.5781286954879761,
        0.7394721508026123,
        0.9986470341682434
      ],
      "min": [
        -0.9916177988052368,
        -0.6447100043296814,
        -1.0
      ],
      "type": "VEC3"
    },
    {
      "bufferView": 1,
      "byteOffset": 32168,
      "componentType": 5126,
      "count": 72,
      "max": [
        0.92330002784729,
        0.632099986076355
      ],
      "min": [
        0.510699987411499,
        0.16210000216960907
      ],
      "type": "VEC2"
    },
    {
      "bufferView": 0,
      "byteOffset": 77436,
      "componentType": 5125,
      "count": 243,
      "type": "SCALAR"
    },
    {
      "bufferView": 2,
      "byteOffset": 98232,
      "componentType": 5126,
      "count": 1764,
      "max": [
        88.07279968261719,
        141.22109985351563,
        122.10099792480469
      ],
      "min": [
        -88.07279968261719,
        -172.9134979248047,
        5.407599925994873
      ],
      "type": "VEC3"
    },
    {
      "bufferView": 2,
      "byteOffset": 119400,
      "componentType": 5126,
      "count": 1764,
      "max": [
        1.0,
        1.0,
        1.0
      ],
      "min": [
        -1.0,
        -0.9992202520370483,
        -1.0
      ],
      "type": "VEC3"
    },
    {
      "bufferView": 1,
      "byteOffset": 32744,
      "componentType": 5126,
      "count": 1764,
      "max": [
        1.9989999532699585,
        0.9975000023841858
      ],
      "min": [
        1.0029000043869019,
        0.007300000172108412
      ],
      "type": "VEC2"
    },
    {
      "bufferView": 0,
      "byteOffset": 78408,
      "componentType": 5125,
      "count": 7332,
      "type": "SCALAR"
    },
    {
      "bufferView": 2,
      "byteOffset": 140568,
      "componentType": 5126,
      "count": 33,
      "max": [
        23.55739974975586,
        -7.210000038146973,
        94.8031997680664
      ],
      "min": [
        -23.55739974975586,
        -25.13960075378418,
        79.19170379638672
      ],
      "type": "VEC3"
    },
    {
      "bufferView": 2,
      "byteOffset": 140964,
      "componentType": 5126,
      "count": 33,
      "max": [
        0.8258856534957886,
        -0.39929306507110596,
        0.45399269461631775
      ],
      "min": [
        -0.8145633935928345,
        -0.8961802124977112,
        0.3852917551994324
      ],
      "type": "VEC3"
    },
    {
      "bufferView": 1,
      "byteOffset": 46856,
      "componentType": 5126,
      "count": 33,
      "max": [
        0.9911999702453613,
        0.9934999942779541
      ],
      "min": [
        0.008299999870359898,
        0.013700000010430813
      ],
      "type": "VEC2"
    },
    {
      "bufferView": 0,
      "byteOffset": 107736,
      "componentType": 5125,
      "count": 102,
      "type": "SCALAR"
    }
  ],
  "asset": {
    "extras": {
      "author": "Neut2000 (https://sketchfab.com/Neut2000)",
      "license": "CC-BY-4.0 (http://creativecommons.org/licenses/by/4.0/)",
      "source": "https://sketchfab.com/3d-models/disney-infinity-francesco-bernoulli-357b4c63d19e432e9c705ce70871b877",
      "title": "Disney Infinity Francesco Bernoulli"
    },
    "generator": "Sketchfab-12.67.0",
    "version": "2.0"
  },
  "bufferViews": [
    {
      "buffer": 0,
      "byteLength": 108144,
      "name": "floatBufferViews",
      "target": 34963
    },
    {
      "buffer": 0,
      "byteLength": 47120,
      "byteOffset": 108144,
      "byteStride": 8,
      "name": "floatBufferViews",
      "target": 34962
    },
    {
      "buffer": 0,
      "byteLength": 141360,
      "byteOffset": 155264,
      "byteStride": 12,
      "name": "floatBufferViews",
      "target": 34962
    }
  ],
  "buffers": [
    {
      "byteLength": 296624,
      "uri": "scene.bin"
    }
  ],
  "images": [
    {
      "uri": "textures/Material__87_baseColor.png"
    },
    {
      "uri": "textures/Material__88_baseColor.png"
    },
    {
      "uri": "textures/Material__89_baseColor.png"
    },
    {
      "uri": "textures/Material__90_baseColor.png"
    }
  ],
  "materials": [
    {
      "doubleSided": true,
      "emissiveTexture": {
        "index": 0
      },
      "name": "Material__87",
      "pbrMetallicRoughness": {
        "baseColorTexture": {
          "index": 0
        },
        "metallicFactor": 0.0
      }
    },
    {
      "doubleSided": true,
      "emissiveTexture": {
        "index": 1
      },
      "name": "Material__88",
      "pbrMetallicRoughness": {
        "baseColorTexture": {
          "index": 1
        },
        "metallicFactor": 0.0
      }
    },
    {
      "doubleSided": true,
      "emissiveTexture": {
        "index": 2
      },
      "name": "Material__89",
      "pbrMetallicRoughness": {
        "baseColorTexture": {
          "index": 2
        },
        "metallicFactor": 0.0
      }
    },
    {
      "doubleSided": true,
      "emissiveTexture": {
        "index": 3
      },
      "name": "Material__90",
      "pbrMetallicRoughness": {
        "baseColorTexture": {
          "index": 3
        },
        "metallicFactor": 0.0
      }
    }
  ],
  "meshes": [
    {
      "name": "Object_0",
      "primitives": [
        {
          "attributes": {
            "NORMAL": 1,
            "POSITION": 0,
            "TEXCOORD_0": 2
          },
          "indices": 3,
          "material": 0,
          "mode": 4
        }
      ]
    },
    {
      "name": "Object_1",
      "primitives": [
        {
          "attributes": {
            "NORMAL": 5,
            "POSITION": 4,
            "TEXCOORD_0": 6
          },
          "indices": 7,
          "material": 1,
          "mode": 4
        }
      ]
    },
    {
      "name": "Object_2",
      "primitives": [
        {
          "attributes": {
            "NORMAL": 9,
            "POSITION": 8,
            "TEXCOORD_0": 10
          },
          "indices": 11,
          "material": 1,
          "mode": 4
        }
      ]
    },
    {
      "name": "Object_3",
      "primitives": [
        {
          "attributes": {
            "NORMAL": 13,
            "POSITION": 12,
            "TEXCOORD_0": 14
          },
          "indices": 15,
          "material": 2,
          "mode": 4
        }
      ]
    },
    {
      "name": "Object_4",
      "primitives": [
        {
          "attributes": {
            "NORMAL": 17,
            "POSITION": 16,
            "TEXCOORD_0": 18
          },
          "indices": 19,
          "material": 3,
          "mode": 4
        }
      ]
    }
  ],
  "nodes": [
    {
      "children": [
        1
      ],
      "matrix": [
        1.0,
        0.0,
        0.0,
        0.0,
        0.0,
        2.220446049250313e-16,
        -1.0,
        0.0,
        0.0,
        1.0,
        2.220446049250313e-16,
        0.0,
        0.0,
        0.0,
        0.0,
        1.0
      ],
      "name": "Sketchfab_model"
    },
    {
      "children": [
        2,
        3,
        4,
        5,
        6
      ],
      "name": "Francesco Bernoulli.obj.cleaner.materialmerger.gles"
    },
    {
      "mesh": 0,
      "name": "Object_2"
    },
    {
      "mesh": 1,
      "name": "Object_3"
    },
    {
      "mesh": 2,
      "name": "Object_4"
    },
    {
      "mesh": 3,
      "name": "Object_5"
    },
    {
      "mesh": 4,
      "name": "Object_6"
    }
  ],
  "samplers": [
    {
      "magFilter": 9729,
      "minFilter": 9987,
      "wrapS": 10497,
      "wrapT": 10497
    }
  ],
  "scene": 0,
  "scenes": [
    {
      "name": "Sketchfab_Scene",
      "nodes": [
        0
      ]
    }
  ],
  "textures": [
    {
      "sampler": 0,
      "source": 0
    },
    {
      "sampler": 0,
      "source": 1
    },
    {
      "sampler": 0,
      "source": 2
    },
    {
      "sampler": 0,
      "source": 3
    }
  ]
}
