{
  "accessors": [
    {
      "bufferView": 2,
      "componentType": 5126,
      "count": 2099,
      "max": [
        68.6426773071289,
        364.4812927246094,
        136.8804168701172
      ],
      "min": [
        0.0,
        18.306182861328125,
        0.0
      ],
      "type": "VEC3"
    },
    {
      "bufferView": 2,
      "byteOffset": 25188,
      "componentType": 5126,
      "count": 2099,
      "max": [
        1.0,
        0.9998862147331238,
        0.999969482421875
      ],
      "min": [
        -1.0,
        -0.983555018901825,
        -1.0
      ],
      "type": "VEC3"
    },
    {
      "bufferView": 1,
      "componentType": 5126,
      "count": 2099,
      "max": [
        0.9985349774360657,
        1.004883050918579
      ],
      "min": [
        0.0012209999840706587,
        0.0
      ],
      "type": "VEC2"
    },
    {
      "bufferView": 0,
      "componentType": 5125,
      "count": 6042,
      "type": "SCALAR"
    },
    {
      "bufferView": 2,
      "byteOffset": 50376,
      "componentType": 5126,
      "count": 945,
      "max": [
        62.47594451904297,
        51.611671447753906,
        112.45294189453125
      ],
      "min": [
        6.166757583618164,
        0.0,
        46.973270416259766
      ],
      "type": "VEC3"
    },
    {
      "bufferView": 2,
      "byteOffset": 61716,
      "componentType": 5126,
      "count": 945,
      "max": [
        0.9980292916297913,
        0.9999406337738037,
        0.9998564124107361
      ],
      "min": [
        -0.998029351234436,
        -0.9988065958023071,
        -0.9987881779670715
      ],
      "type": "VEC3"
    },
    {
      "bufferView": 1,
      "byteOffset": 16792,
      "componentType": 5126,
      "count": 945,
      "max": [
        0.9990230202674866,
        0.9985349774360657
      ],
      "min": [
        0.00024399999529123306,
        0.0007319999858736992
      ],
      "type": "VEC2"
    },
    {
      "bufferView": 0,
      "byteOffset": 24168,
      "componentType": 5125,
      "count": 2694,
      "type": "SCALAR"
    }
  ],
  "asset": {
    "extras": {
      "author": "peedr0o0 (https://sketchfab.com/peedr0o0)",
      "license": "CC-BY-4.0 (http://creativecommons.org/licenses/by/4.0/)",
      "source": "https://sketchfab.com/3d-models/kingdom-hearts-scar-e0a3d8a3724344a1bef9126a8ccd11c4",
      "title": "Kingdom Hearts - Scar"
    },
    "generator": "Sketchfab-12.68.0",
    "version": "2.0"
  },
  "bufferViews": [
    {
      "buffer": 0,
      "byteLength": 34944,
      "name": "floatBufferViews",
      "target": 34963
    },
    {
      "buffer": 0,
      "byteLength": 24352,
      "byteOffset": 34944,
      "byteStride": 8,
      "name": "floatBufferViews",
      "target": 34962
    },
    {
      "buffer": 0,
      "byteLength": 73056,
      "byteOffset": 59296,
      "byteStride": 12,
      "name": "floatBufferViews",
      "target": 34962
    }
  ],
  "buffers": [
    {
      "byteLength": 132352,
      "uri": "scene.bin"
    }
  ],
  "extensionsUsed": [
    "KHR_materials_unlit"
  ],
  "images": [
    {
      "uri": "textures/texture000_texture000.png_baseColor.png"
    },
    {
      "uri": "textures/texture001_texture001.png_baseColor.png"
    }
  ],
  "materials": [
    {
      "doubleSided": true,
      "extensions": {
        "KHR_materials_unlit": {}
      },
      "name": "texture000_texture000.png",
      "pbrMetallicRoughness": {
        "baseColorTexture": {
          "index": 0
        },
        "metallicFactor": 0.0
      }
    },
    {
      "doubleSided": true,
      "extensions": {
        "KHR_materials_unlit": {}
      },
      "name": "texture001_texture001.png",
      "pbrMetallicRoughness": {
        "baseColorTexture": {
          "index": 1
        },
        "metallicFactor": 0.0
      }
    }
  ],
  "meshes": [
    {
      "name": "Object_0",
      "primitives": [
        {
          "attributes": {
            "NORMAL": 1,
            "POSITION": 0,
            "TEXCOORD_0": 2
          },
          "indices": 3,
          "material": 0,
          "mode": 4
        }
      ]
    },
    {
      "name": "Object_1",
      "primitives": [
        {
          "attributes": {
            "NORMAL": 5,
            "POSITION": 4,
            "TEXCOORD_0": 6
          },
          "indices": 7,
          "material": 1,
          "mode": 4
        }
      ]
    }
  ],
  "nodes": [
    {
      "children": [
        1
      ],
      "matrix": [
        1.0,
        0.0,
        0.0,
        0.0,
        0.0,
        2.220446049250313e-16,
        -1.0,
        0.0,
        0.0,
        1.0,
        2.220446049250313e-16,
        0.0,
        0.0,
        0.0,
        0.0,
        1.0
      ],
      "name": "Sketchfab_model"
    },
    {
      "children": [
        2
      ],
      "matrix": [
        1.0,
        0.0,
        0.0,
        0.0,
        0.0,
        1.0,
        0.0,
        0.0,
        0.0,
        0.0,
        1.0,
        0.0,
        -34.32133865356445,
        -161.6131134033203,
        -3.48614501953125,
        1.0
      ],
      "name": "Scar.obj.cleaner.gles"
    },
    {
      "children": [
        3,
        4
      ],
      "name": "Object_2"
    },
    {
      "mesh": 0,
      "name": "Object_3"
    },
    {
      "mesh": 1,
      "name": "Object_4"
    }
  ],
  "samplers": [
    {
      "magFilter": 9729,
      "minFilter": 9987,
      "wrapS": 10497,
      "wrapT": 10497
    }
  ],
  "scene": 0,
  "scenes": [
    {
      "name": "Sketchfab_Scene",
      "nodes": [
        0
      ]
    }
  ],
  "textures": [
    {
      "sampler": 0,
      "source": 0
    },
    {
      "sampler": 0,
      "source": 1
    }
  ]
}
