{
  "accessors": [
    {
      "bufferView": 2,
      "componentType": 5126,
      "count": 2258,
      "max": [
        35.22610092163086,
        32.73759841918945,
        186.3101043701172
      ],
      "min": [
        -69.83540344238281,
        -89.00460052490234,
        -0.0
      ],
      "type": "VEC3"
    },
    {
      "bufferView": 2,
      "byteOffset": 27096,
      "componentType": 5126,
      "count": 2258,
      "max": [
        0.9994139671325684,
        0.9990569353103638,
        0.9997836947441101
      ],
      "min": [
        -0.9997959733009338,
        -0.9988424777984619,
        -1.0
      ],
      "type": "VEC3"
    },
    {
      "bufferView": 1,
      "componentType": 5126,
      "count": 2258,
      "max": [
        0.9955999851226807,
        0.9063000082969666
      ],
      "min": [
        0.006500000134110451,
        0.006300000008195639
      ],
      "type": "VEC2"
    },
    {
      "bufferView": 0,
      "componentType": 5125,
      "count": 9999,
      "type": "SCALAR"
    },
    {
      "bufferView": 2,
      "byteOffset": 54192,
      "componentType": 5126,
      "count": 2042,
      "max": [
        69.83540344238281,
        160.66299438476563,
        212.3321075439453
      ],
      "min": [
        -69.6156005859375,
        -95.19730377197266,
        -0.0
      ],
      "type": "VEC3"
    },
    {
      "bufferView": 2,
      "byteOffset": 78696,
      "componentType": 5126,
      "count": 2042,
      "max": [
        0.9997959733009338,
        0.9997878670692444,
        0.9999438524246216
      ],
      "min": [
        -0.9997175335884094,
        -0.9998687505722046,
        -1.0
      ],
      "type": "VEC3"
    },
    {
      "bufferView": 1,
      "byteOffset": 18064,
      "componentType": 5126,
      "count": 2042,
      "max": [
        0.9937000274658203,
        0.9851999878883362
      ],
      "min": [
        0.006500000134110451,
        0.008299999870359898
      ],
      "type": "VEC2"
    },
    {
      "bufferView": 0,
      "byteOffset": 39996,
      "componentType": 5125,
      "count": 9999,
      "type": "SCALAR"
    },
    {
      "bufferView": 2,
      "byteOffset": 103200,
      "componentType": 5126,
      "count": 281,
      "max": [
        55.43949890136719,
        160.66299438476563,
        206.8986053466797
      ],
      "min": [
        -31.282499313354492,
        -95.1083984375,
        16.997699737548828
      ],
      "type": "VEC3"
    },
    {
      "bufferView": 2,
      "byteOffset": 106572,
      "componentType": 5126,
      "count": 281,
      "max": [
        0.9850656986236572,
        0.9899458885192871,
        0.999897837638855
      ],
      "min": [
        -0.9997894167900085,
        -0.9995037913322449,
        -0.9903699159622192
      ],
      "type": "VEC3"
    },
    {
      "bufferView": 1,
      "byteOffset": 34400,
      "componentType": 5126,
      "count": 281,
      "max": [
        0.9955999851226807,
        0.8812000155448914
      ],
      "min": [
        0.094200000166893,
        0.0746999979019165
      ],
      "type": "VEC2"
    },
    {
      "bufferView": 0,
      "byteOffset": 79992,
      "componentType": 5125,
      "count": 900,
      "type": "SCALAR"
    },
    {
      "bufferView": 2,
      "byteOffset": 109944,
      "componentType": 5126,
      "count": 331,
      "max": [
        8.135499954223633,
        -36.94049835205078,
        204.0299072265625
      ],
      "min": [
        -8.135499954223633,
        -44.71770095825195,
        196.25250244140625
      ],
      "type": "VEC3"
    },
    {
      "bufferView": 2,
      "byteOffset": 113916,
      "componentType": 5126,
      "count": 331,
      "max": [
        1.0,
        1.0,
        1.0
      ],
      "min": [
        -1.0,
        -1.0,
        -1.0
      ],
      "type": "VEC3"
    },
    {
      "bufferView": 1,
      "byteOffset": 36648,
      "componentType": 5126,
      "count": 331,
      "max": [
        -0.013100000098347664,
        0.9871000051498413
      ],
      "min": [
        -1.0420000553131104,
        0.016599999740719795
      ],
      "type": "VEC2"
    },
    {
      "bufferView": 0,
      "byteOffset": 83592,
      "componentType": 5125,
      "count": 1728,
      "type": "SCALAR"
    }
  ],
  "asset": {
    "extras": {
      "author": "Neut2000 (https://sketchfab.com/Neut2000)",
      "license": "CC-BY-4.0 (http://creativecommons.org/licenses/by/4.0/)",
      "source": "https://sketchfab.com/3d-models/disney-infinity-rex-toy-story-7376dd6b0032461fa242f533eee6b7ca",
      "title": "Disney Infinity Rex Toy Story"
    },
    "generator": "Sketchfab-12.67.0",
    "version": "2.0"
  },
  "bufferViews": [
    {
      "buffer": 0,
      "byteLength": 90504,
      "name": "floatBufferViews",
      "target": 34963
    },
    {
      "buffer": 0,
      "byteLength": 39296,
      "byteOffset": 90504,
      "byteStride": 8,
      "name": "floatBufferViews",
      "target": 34962
    },
    {
      "buffer": 0,
      "byteLength": 117888,
      "byteOffset": 129800,
      "byteStride": 12,
      "name": "floatBufferViews",
      "target": 34962
    }
  ],
  "buffers": [
    {
      "byteLength": 247688,
      "uri": "scene.bin"
    }
  ],
  "images": [
    {
      "uri": "textures/Material__40_baseColor.png"
    },
    {
      "uri": "textures/Material__41_baseColor.png"
    }
  ],
  "materials": [
    {
      "doubleSided": true,
      "emissiveTexture": {
        "index": 0
      },
      "name": "Material__40",
      "pbrMetallicRoughness": {
        "baseColorTexture": {
          "index": 0
        },
        "metallicFactor": 0.0
      }
    },
    {
      "doubleSided": true,
      "emissiveTexture": {
        "index": 1
      },
      "name": "Material__41",
      "pbrMetallicRoughness": {
        "baseColorTexture": {
          "index": 1
        },
        "metallicFactor": 0.0
      }
    }
  ],
  "meshes": [
    {
      "name": "Object_0",
      "primitives": [
        {
          "attributes": {
            "NORMAL": 1,
            "POSITION": 0,
            "TEXCOORD_0": 2
          },
          "indices": 3,
          "material": 0,
          "mode": 4
        }
      ]
    },
    {
      "name": "Object_1",
      "primitives": [
        {
          "attributes": {
            "NORMAL": 5,
            "POSITION": 4,
            "TEXCOORD_0": 6
          },
          "indices": 7,
          "material": 0,
          "mode": 4
        }
      ]
    },
    {
      "name": "Object_2",
      "primitives": [
        {
          "attributes": {
            "NORMAL": 9,
            "POSITION": 8,
            "TEXCOORD_0": 10
          },
          "indices": 11,
          "material": 0,
          "mode": 4
        }
      ]
    },
    {
      "name": "Object_3",
      "primitives": [
        {
          "attributes": {
            "NORMAL": 13,
            "POSITION": 12,
            "TEXCOORD_0": 14
          },
          "indices": 15,
          "material": 1,
          "mode": 4
        }
      ]
    }
  ],
  "nodes": [
    {
      "children": [
        1
      ],
      "matrix": [
        1.0,
        0.0,
        0.0,
        0.0,
        0.0,
        2.220446049250313e-16,
        -1.0,
        0.0,
        0.0,
        1.0,
        2.220446049250313e-16,
        0.0,
        0.0,
        0.0,
        0.0,
        1.0
      ],
      "name": "Sketchfab_model"
    },
    {
      "children": [
        2,
        3,
        4,
        5
      ],
      "name": "Rex.obj.cleaner.materialmerger.gles"
    },
    {
      "mesh": 0,
      "name": "Object_2"
    },
    {
      "mesh": 1,
      "name": "Object_3"
    },
    {
      "mesh": 2,
      "name": "Object_4"
    },
    {
      "mesh": 3,
      "name": "Object_5"
    }
  ],
  "samplers": [
    {
      "magFilter": 9729,
      "minFilter": 9987,
      "wrapS": 10497,
      "wrapT": 10497
    }
  ],
  "scene": 0,
  "scenes": [
    {
      "name": "Sketchfab_Scene",
      "nodes": [
        0
      ]
    }
  ],
  "textures": [
    {
      "sampler": 0,
      "source": 0
    },
    {
      "sampler": 0,
      "source": 1
    }
  ]
}
