{
  "accessors": [
    {
      "bufferView": 2,
      "componentType": 5126,
      "count": 2181,
      "max": [
        106.82469940185547,
        65.17050170898438,
        211.1844024658203
      ],
      "min": [
        -106.82469940185547,
        -52.019901275634766,
        21.749099731445313
      ],
      "type": "VEC3"
    },
    {
      "bufferView": 2,
      "byteOffset": 26172,
      "componentType": 5126,
      "count": 2181,
      "max": [
        0.9999997615814209,
        0.9998829364776611,
        0.9995852112770081
      ],
      "min": [
        -0.9999997615814209,
        -0.9998520612716675,
        -0.999953031539917
      ],
      "type": "VEC3"
    },
    {
      "bufferView": 1,
      "componentType": 5126,
      "count": 2181,
      "max": [
        0.9937000274658203,
        0.9941999912261963
      ],
      "min": [
        0.006300000008195639,
        0.01119999960064888
      ],
      "type": "VEC2"
    },
    {
      "bufferView": 0,
      "componentType": 5125,
      "count": 9999,
      "type": "SCALAR"
    },
    {
      "bufferView": 2,
      "byteOffset": 52344,
      "componentType": 5126,
      "count": 2246,
      "max": [
        106.82469940185547,
        79.23400115966797,
        218.1239013671875
      ],
      "min": [
        -43.4026985168457,
        -52.94350051879883,
        0.22010000050067902
      ],
      "type": "VEC3"
    },
    {
      "bufferView": 2,
      "byteOffset": 79296,
      "componentType": 5126,
      "count": 2246,
      "max": [
        1.0,
        0.9989620447158813,
        0.9987088441848755
      ],
      "min": [
        -1.0,
        -0.9999837875366211,
        -1.0
      ],
      "type": "VEC3"
    },
    {
      "bufferView": 1,
      "byteOffset": 17448,
      "componentType": 5126,
      "count": 2246,
      "max": [
        0.9926999807357788,
        0.9934999942779541
      ],
      "min": [
        0.0026000000070780516,
        0.005900000222027302
      ],
      "type": "VEC2"
    },
    {
      "bufferView": 0,
      "byteOffset": 39996,
      "componentType": 5125,
      "count": 9999,
      "type": "SCALAR"
    },
    {
      "bufferView": 2,
      "byteOffset": 106248,
      "componentType": 5126,
      "count": 1310,
      "max": [
        39.629798889160156,
        47.83539962768555,
        226.30880737304688
      ],
      "min": [
        -42.022499084472656,
        -54.91419982910156,
        0.22010000050067902
      ],
      "type": "VEC3"
    },
    {
      "bufferView": 2,
      "byteOffset": 121968,
      "componentType": 5126,
      "count": 1310,
      "max": [
        0.999940037727356,
        0.9989620447158813,
        0.9884095191955566
      ],
      "min": [
        -0.9975341558456421,
        -0.999187707901001,
        -1.0
      ],
      "type": "VEC3"
    },
    {
      "bufferView": 1,
      "byteOffset": 35416,
      "componentType": 5126,
      "count": 1310,
      "max": [
        0.9911999702453613,
        0.9958000183105469
      ],
      "min": [
        0.010700000450015068,
        0.01119999960064888
      ],
      "type": "VEC2"
    },
    {
      "bufferView": 0,
      "byteOffset": 79992,
      "componentType": 5125,
      "count": 6012,
      "type": "SCALAR"
    },
    {
      "bufferView": 2,
      "byteOffset": 137688,
      "componentType": 5126,
      "count": 137,
      "max": [
        11.77079963684082,
        -43.554298400878906,
        205.18820190429688
      ],
      "min": [
        -11.77079963684082,
        -47.555999755859375,
        193.98770141601563
      ],
      "type": "VEC3"
    },
    {
      "bufferView": 2,
      "byteOffset": 139332,
      "componentType": 5126,
      "count": 137,
      "max": [
        0.9069472551345825,
        -0.40161097049713135,
        0.8081943988800049
      ],
      "min": [
        -0.9069472551345825,
        -0.9941893219947815,
        -0.7026010155677795
      ],
      "type": "VEC3"
    },
    {
      "bufferView": 1,
      "byteOffset": 45896,
      "componentType": 5126,
      "count": 137,
      "max": [
        -0.2094999998807907,
        0.9348999857902527
      ],
      "min": [
        -0.9603999853134155,
        0.18950000405311584
      ],
      "type": "VEC2"
    },
    {
      "bufferView": 0,
      "byteOffset": 104040,
      "componentType": 5125,
      "count": 672,
      "type": "SCALAR"
    }
  ],
  "asset": {
    "extras": {
      "author": "Neut2000 (https://sketchfab.com/Neut2000)",
      "license": "CC-BY-4.0 (http://creativecommons.org/licenses/by/4.0/)",
      "source": "https://sketchfab.com/3d-models/disney-infinity-sulley-eb8ada0e1e0d457a867f4ed438af4179",
      "title": "Disney Infinity Sulley"
    },
    "generator": "Sketchfab-12.67.0",
    "version": "2.0"
  },
  "bufferViews": [
    {
      "buffer": 0,
      "byteLength": 106728,
      "name": "floatBufferViews",
      "target": 34963
    },
    {
      "buffer": 0,
      "byteLength": 46992,
      "byteOffset": 106728,
      "byteStride": 8,
      "name": "floatBufferViews",
      "target": 34962
    },
    {
      "buffer": 0,
      "byteLength": 140976,
      "byteOffset": 153720,
      "byteStride": 12,
      "name": "floatBufferViews",
      "target": 34962
    }
  ],
  "buffers": [
    {
      "byteLength": 294696,
      "uri": "scene.bin"
    }
  ],
  "images": [
    {
      "uri": "textures/Material__25_baseColor.png"
    },
    {
      "uri": "textures/Material__26_baseColor.png"
    }
  ],
  "materials": [
    {
      "doubleSided": true,
      "emissiveTexture": {
        "index": 0
      },
      "name": "Material__25",
      "pbrMetallicRoughness": {
        "baseColorTexture": {
          "index": 0
        },
        "metallicFactor": 0.0
      }
    },
    {
      "doubleSided": true,
      "emissiveTexture": {
        "index": 1
      },
      "name": "Material__26",
      "pbrMetallicRoughness": {
        "baseColorTexture": {
          "index": 1
        },
        "metallicFactor": 0.0
      }
    }
  ],
  "meshes": [
    {
      "name": "Object_0",
      "primitives": [
        {
          "attributes": {
            "NORMAL": 1,
            "POSITION": 0,
            "TEXCOORD_0": 2
          },
          "indices": 3,
          "material": 0,
          "mode": 4
        }
      ]
    },
    {
      "name": "Object_1",
      "primitives": [
        {
          "attributes": {
            "NORMAL": 5,
            "POSITION": 4,
            "TEXCOORD_0": 6
          },
          "indices": 7,
          "material": 0,
          "mode": 4
        }
      ]
    },
    {
      "name": "Object_2",
      "primitives": [
        {
          "attributes": {
            "NORMAL": 9,
            "POSITION": 8,
            "TEXCOORD_0": 10
          },
          "indices": 11,
          "material": 0,
          "mode": 4
        }
      ]
    },
    {
      "name": "Object_3",
      "primitives": [
        {
          "attributes": {
            "NORMAL": 13,
            "POSITION": 12,
            "TEXCOORD_0": 14
          },
          "indices": 15,
          "material": 1,
          "mode": 4
        }
      ]
    }
  ],
  "nodes": [
    {
      "children": [
        1
      ],
      "matrix": [
        1.0,
        0.0,
        0.0,
        0.0,
        0.0,
        2.220446049250313e-16,
        -1.0,
        0.0,
        0.0,
        1.0,
        2.220446049250313e-16,
        0.0,
        0.0,
        0.0,
        0.0,
        1.0
      ],
      "name": "Sketchfab_model"
    },
    {
      "children": [
        2,
        3,
        4,
        5
      ],
      "name": "Sullivan.obj.cleaner.materialmerger.gles"
    },
    {
      "mesh": 0,
      "name": "Object_2"
    },
    {
      "mesh": 1,
      "name": "Object_3"
    },
    {
      "mesh": 2,
      "name": "Object_4"
    },
    {
      "mesh": 3,
      "name": "Object_5"
    }
  ],
  "samplers": [
    {
      "magFilter": 9729,
      "minFilter": 9987,
      "wrapS": 10497,
      "wrapT": 10497
    }
  ],
  "scene": 0,
  "scenes": [
    {
      "name": "Sketchfab_Scene",
      "nodes": [
        0
      ]
    }
  ],
  "textures": [
    {
      "sampler": 0,
      "source": 0
    },
    {
      "sampler": 0,
      "source": 1
    }
  ]
}
